<svg width="487" height="950" viewBox="0 0 487 950" fill="none" xmlns="http://www.w3.org/2000/svg">
<path d="M344.03 281.968C342.554 277.191 336.157 296.555 327.912 320.922C319.666 345.256 274.694 399.605 252.567 475.867C230.454 552.13 247.691 569.977 250.315 579.723C252.939 589.47 245.439 604.058 237.939 612.997C230.439 621.905 176.088 690.067 159.984 754.162C143.866 818.257 154.363 848.272 157.36 854.759C160.357 861.246 138.244 883.159 132.623 920.467C127.001 957.776 159.984 948.061 165.979 948.061C171.973 948.061 176.849 939.961 180.591 928.6C184.334 917.24 195.204 879.932 199.334 862.892C203.465 845.851 216.199 801.249 218.823 791.502C221.447 781.756 228.948 752.548 234.942 738.767C240.936 724.987 245.066 695.779 246.557 684.419C248.063 673.059 248.809 654.404 255.921 630.07C263.049 605.736 274.665 561.941 281.032 539.22C287.398 516.5 305.023 446.724 305.769 442.69C306.514 438.624 304.263 431.33 304.263 431.33C304.263 431.33 308.393 417.549 310.257 412.676C312.136 407.802 313.627 395.635 311.003 390.762C308.378 385.889 321.127 357.488 326.376 342.9C331.624 328.313 339.87 299.105 341.749 293.425C343.628 287.745 345.492 286.938 344 282.065L344.03 281.968Z" fill="#7B7CF1" fill-opacity="0.5"/>
<path d="M151.754 917.983C151.754 917.983 179.473 823.873 184.916 810.899C190.358 797.925 193.728 770.331 197.471 771.945C201.214 773.558 197.844 792.213 193.728 807.639C189.598 823.066 166.739 900.942 162.251 917.983C157.748 935.023 155.124 936.637 151.754 936.637C148.384 936.637 149.502 925.599 151.754 917.983Z" fill="white"/>
<path d="M202.078 745.802C202.763 741.801 205.552 738.283 207.371 740.574C209.19 742.866 209.19 747.448 208.131 751.386C207.073 755.323 205.418 757.615 203.598 756.291C201.779 754.968 201.034 752.031 202.092 745.835L202.078 745.802Z" fill="white"/>
<path d="M200.11 898.263C201.839 900.877 204.494 893.68 207.52 882.901C210.547 872.121 242.889 760.519 247.586 743.511C252.268 726.503 257.413 709.14 254.386 705.235C251.359 701.33 249.241 712.432 247.437 723.889C245.633 735.346 230.349 777.883 226.129 794.568C221.895 811.254 214.484 837.427 209.504 856.082C204.508 874.736 203.241 881.287 201.616 886.838C199.99 892.389 198.619 896.004 200.14 898.295L200.11 898.263Z" fill="#AF4889" fill-opacity="0.66"/>
<path d="M241.234 865.861C242.889 867.959 246.826 862.246 249.704 851.144C252.582 840.01 266.479 779.82 272.234 753.323C277.975 726.827 281.762 706.204 283.417 699.652C285.087 693.101 281.911 689.841 280.092 695.715C278.273 701.589 277.528 704.558 273.144 715.337C268.76 726.149 259.381 739.639 256.667 756.615C253.953 773.591 262.557 773.914 261.961 782.079C261.349 790.244 258.785 796.473 253.342 806.929C247.9 817.386 244.574 831.457 242.606 843.56C240.638 855.663 238.67 862.537 241.249 865.796L241.234 865.861Z" fill="#926650"/>
<path d="M330.565 603.122C330.565 603.122 280.077 832.813 277.497 843.269C274.917 853.726 275.529 857.986 276.886 859.632C278.243 861.278 279.764 858.664 283.238 844.27C286.712 829.876 333.279 621.131 335.083 611.642C336.887 602.154 337.35 598.216 335.083 596.603C332.817 594.957 331.281 599.83 330.55 603.154L330.565 603.122Z" fill="#7B7CF1" fill-opacity="0.5"/>
<path d="M413.515 174.82C411.114 168.785 406.552 190.344 404.449 196.282C402.347 202.22 394.757 212.257 398.753 222.294C398.753 222.294 387.153 230.976 382.098 246.951C377.043 262.927 386.944 272.06 385.9 277.063C384.841 282.097 366.292 322.697 356.6 347.354C346.908 372.011 340.794 390.698 344.582 402.574C348.369 414.451 350.278 415.806 350.278 415.806C350.278 415.806 348.175 427.683 351.545 429.039C354.915 430.394 355.765 425.844 364.413 390.698C373.062 355.552 407.849 211.805 411.01 196.734C414.171 181.662 414.812 178.015 413.545 174.82H413.515Z" fill="#926650"/>
<path d="M352.798 122.795C355.855 126.28 352.59 137.382 348.787 151.099C344.985 164.783 307.469 317.211 303.249 333.638C299.029 350.065 296.927 356.003 294.392 352.808C291.857 349.613 293.542 339.124 297.136 325.44C300.714 311.756 335.517 175.304 339.721 160.684C343.941 146.096 348.787 118.244 352.798 122.795Z" fill="#7CB7F6"/>
<path d="M231.557 456.373C232.884 459.601 234.301 462.764 228.396 482.838C222.491 502.912 214.901 527.569 211.323 537.606C207.744 547.643 194.041 585.08 191.506 611.996C188.971 638.913 186.869 641.656 180.547 659.923C174.224 678.189 157.778 705.106 137.32 769.007C116.862 832.909 117.921 836.104 115.609 844.301C113.283 852.531 110.122 856.178 110.763 862.568C111.39 868.958 112.031 875.349 104.024 902.265C96.0164 929.181 82.522 934.99 74.2911 936.668C66.0603 938.346 20.3135 940.477 11.0389 936.668C1.76426 932.86 -10.4627 878.995 16.0937 831.553C42.665 784.079 92.6316 752.612 98.1188 746.222C103.606 739.832 101.697 732.086 100.654 718.854C99.595 705.622 101.921 670.024 138.602 640.365C175.283 610.705 178.235 609.802 178.027 593.375C177.818 576.947 174.448 561.876 186.675 537.703C198.902 513.53 211.338 508.495 215.557 498.458C219.777 488.421 225.309 467.895 227.397 461.957C229.484 456.018 230.454 453.727 231.587 456.47L231.557 456.373Z" fill="#926650"/>
<path d="M50.0165 910.367C50.0165 910.367 85.2212 819.194 96.6132 790.47C108.005 761.715 119.591 733.895 121.708 728.408C123.811 722.922 126.346 718.371 128.672 722.018C130.998 725.665 128.045 732.055 125.302 739.801C122.558 747.547 62.2583 910.011 60.5734 914.594C58.8885 919.145 55.9361 923.728 51.09 924.632C46.244 925.535 47.9587 915.724 50.0314 910.367H50.0165Z" fill="#AF4889" fill-opacity="0.66"/>
<path d="M6.80445 814.159C5.05987 810.383 7.43071 804.573 15.4528 789.986C23.46 775.398 44.9765 753.936 63.317 745.255C81.6574 736.573 72.1741 754.388 65.8518 758.035C59.5296 761.682 47.0938 768.976 32.332 784.951C17.5702 800.926 16.7351 803.67 14.2003 807.768C11.6654 811.867 8.5043 817.806 6.81936 814.159H6.80445Z" fill="#7B7CF1" fill-opacity="0.5"/>
<path d="M81.4326 739.8C81.6414 736.509 83.5351 732.055 86.4874 731.119C89.4398 730.183 91.7659 731.119 91.7659 735.444C91.7659 739.768 89.3951 740.543 86.5769 742.899C83.7587 745.255 81.2835 742.156 81.4326 739.768V739.8Z" fill="#7B7CF1" fill-opacity="0.5"/>
<path d="M255.28 382.92C257.144 385.437 254.743 394.344 250.524 404.381C246.304 414.419 242.039 436.332 238.267 436.332C234.494 436.332 240.19 417.614 242.934 409.642C245.678 401.67 252.224 378.853 255.28 382.952V382.92Z" fill="#926650"/>
<path d="M478.453 24.6824C477.931 36.0427 477.826 50.243 475.083 57.085C472.339 63.9269 464.123 78.5469 451.046 116.404C437.969 154.293 432.065 181.209 436.076 191.698C440.087 202.187 449.152 198.992 447.035 218.162C444.933 237.333 421.94 282.516 405.493 357.358C389.046 432.2 394.071 510.69 414.112 510.238C434.167 509.786 438.596 512.981 434.376 533.507C430.156 554.033 407.804 649.886 390.731 741.155C373.658 832.425 363.951 899.069 383.559 916.852C403.167 934.635 426.145 925.534 428.367 920.951C430.588 916.368 437.746 816.449 441.548 783.143C445.35 749.837 467.91 460.052 472.115 381.563C476.335 303.074 486.236 37.4626 486.668 21.4872C487.086 5.51183 486.251 0.509452 483.299 0.0253491C480.346 -0.426481 479.332 5.06007 478.453 24.6824Z" fill="#926650"/>
<path d="M451.255 89.9407C451.598 93.5554 452.522 96.7827 447.452 106.368C442.398 115.953 436.702 130.089 434.376 141.514C432.049 152.939 430.797 157.941 428.366 157.489C425.936 157.037 426.771 146.548 429.723 133.768C432.676 120.988 440.28 101.817 442.8 96.3631C445.335 90.8766 450.778 85.1642 451.24 89.9729L451.255 89.9407Z" fill="#AF4889" fill-opacity="0.66"/>
<path d="M389.271 697.812C391.403 700.459 388.421 713.788 384.216 732.055C379.996 750.321 369.245 797.764 366.501 831.07C363.758 864.376 363.758 862.311 360.806 866.313C357.853 870.314 359.121 852.499 361.655 823.292C364.19 794.084 376.73 736.637 378.788 728.182C380.846 719.726 384.857 692.326 389.271 697.812Z" fill="#AF4889" fill-opacity="0.66"/>
<path d="M394.326 666.765C395.832 668.927 398.337 663.57 399.604 658.535C400.872 653.5 401.707 649.853 399.604 648.498C397.502 647.142 395.593 651.693 394.326 655.792C393.058 659.89 392.432 664.021 394.326 666.732V666.765Z" fill="#AF4889" fill-opacity="0.66"/>
<path d="M467.702 587.823C469.909 587.823 472.131 594.665 470.028 627.972C467.926 661.278 457.593 830.585 455.475 861.632C453.373 892.679 452.523 906.008 448.512 908.17C444.501 910.333 444.083 902.684 445.768 880.318C447.453 857.953 457.787 696.036 459.68 667.248C461.574 638.46 461.783 626.552 462.841 615.159C463.9 603.766 463.9 587.791 467.687 587.791L467.702 587.823Z" fill="#7CB7F6"/>
<path d="M175.193 499.814C178.459 492.746 180.099 487.873 182.544 479.482C184.99 471.091 191.73 459.15 194.592 464.894C197.455 470.639 192.758 483.032 189.284 491.423C185.81 499.814 178.25 511.756 175.193 522.374C172.122 532.992 165.799 543.158 161.296 557.294C156.793 571.429 153.125 583.371 150.068 584.274C146.997 585.146 144.864 583.822 147.563 571.881C150.262 559.94 153.528 555.518 157.002 544.9C160.476 534.282 165.993 519.243 169.87 509.981C173.747 500.686 175.178 499.814 175.178 499.814H175.193Z" fill="#7CB7F6"/>
</svg>
