<svg width="1507" height="1150" viewBox="0 0 1507 1150" fill="none" xmlns="http://www.w3.org/2000/svg">
<g clip-path="url(#clip0_396_849)">
<mask id="mask0_396_849" style="mask-type:luminance" maskUnits="userSpaceOnUse" x="0" y="-94" width="1512" height="1212">
<path d="M0 -94H1512V1118H0V-94Z" fill="white"/>
</mask>
<g mask="url(#mask0_396_849)">
<path d="M1712.76 210.309C1659.9 207.57 1586.39 206.698 1522.86 217.291C1459.35 227.908 1425.03 252.705 1419.1 270.715C1413.18 288.702 1420.19 302.809 1367.63 311.148C1315.08 319.486 1254.81 325.74 1228.11 339.824C1201.4 353.907 1227.29 379.577 1222.24 384.134C1217.19 388.692 1168.71 393.103 1144.89 398.897C1121.06 404.69 1116.19 421.343 1125.32 432.784C1134.45 444.225 1111.41 450.794 1089.64 461.048C1067.86 471.301 1042.55 488.342 1045.43 493.554C1048.3 498.765 1060.18 502.62 1116.55 478.961C1172.92 455.303 1266 415.549 1283.96 407.138C1301.92 398.727 1324.39 389.952 1322.55 376.984C1320.7 364.015 1507.04 296.652 1556.94 281.672C1606.83 266.716 1677.68 240.731 1709.74 233.143C1741.79 225.556 1725.95 210.964 1712.76 210.285V210.309Z" fill="#AF4889"/>
<path d="M1348.64 374.244C1358.32 372.693 1360.13 374.511 1360.47 378.802C1360.8 383.092 1343.68 385.201 1341.66 383.601C1339.63 382.001 1342.17 375.287 1348.64 374.244Z" fill="#AF4889"/>
<path d="M795.584 746.135C826.61 739.518 936.321 708.296 965.019 699.376C993.716 690.432 988.848 693.583 1019 686.893C1049.15 680.202 1107 658.798 1125.93 649.757C1144.86 640.691 1109.29 641.224 1100.13 636.91C1090.94 632.571 1051.63 607.894 1002.49 617.227C953.346 626.559 947.117 660.18 933.357 670.385C919.598 680.59 864.289 669.319 845.813 674.966C827.336 680.59 828.969 694.964 828.364 706.285C827.759 717.605 821.288 726.307 808.255 730.888C795.221 735.469 785.998 738.233 785.423 742.451C784.879 746.668 795.584 746.159 795.584 746.159V746.135Z" fill="#7B7CF1"/>
<path d="M1733.99 83.3889C1696.16 80.8922 1565.07 72.6021 1481.1 103.872C1397.12 135.141 1412.33 167.72 1415.84 181.537C1419.34 195.353 1413.15 201.923 1374.77 203.644C1336.4 205.365 1279.45 213.315 1263.19 229.023C1246.92 244.706 1265.79 256.269 1264.4 266.813C1263 277.357 1235.52 290.665 1199.98 297.622C1164.45 304.555 1138.32 314.42 1138.69 325.134C1139.05 335.824 1137.05 344.187 1120.06 351.992C1103.06 359.798 1090.45 367.966 1084.8 370.342C1079.15 372.718 1080.9 386.365 1094.2 379.674C1107.51 372.984 1278.12 283.636 1350.46 246.403C1422.79 209.17 1532.17 153.733 1550.8 140.377C1569.43 127.021 1599.33 128.863 1622.53 127.991C1645.72 127.118 1733.99 83.4132 1733.99 83.4132V83.3889Z" fill="#7B7CF1"/>
<path d="M1579.41 152.061C1582.88 154.654 1574.6 161.611 1562.26 167.671C1549.92 173.731 1504.56 194.771 1479.7 208.297C1454.85 221.823 1435.34 235.107 1416.05 246.984C1396.73 258.862 1365.79 278.278 1357.47 274.012C1349.16 269.746 1390.31 249.069 1406.67 238.355C1423.03 227.665 1477.13 200.953 1499.27 187.912C1521.4 174.846 1549.41 164.423 1559.69 160.326C1570 156.23 1572.96 147.237 1579.41 152.036V152.061Z" fill="#DFA85B"/>
<path d="M1320.19 280.8C1327.29 277.625 1339.66 281.043 1338.94 286.666C1338.21 292.29 1324.57 294.69 1318.52 293.478C1312.48 292.266 1304.16 287.999 1320.19 280.824V280.8Z" fill="#DFA85B"/>
<path d="M1315.14 361.446C1320.55 367.167 1294.91 378.22 1265.57 392.086C1236.24 405.951 1116.49 452.686 1102.22 460.006C1087.94 467.327 1079.36 465.169 1077.18 461.436C1075 457.703 1087.52 450.237 1109.11 441.39C1130.67 432.566 1238.63 387.674 1253.99 379.02C1269.35 370.366 1304.46 350.175 1315.14 361.446Z" fill="white"/>
<path d="M1538.1 336.987C1542.42 341.278 1527.39 344.235 1491.19 363.045C1455 381.855 1382.57 412.858 1363.16 425.706C1343.74 438.553 1316.83 454.042 1310.27 449.921C1303.71 445.801 1317.77 433.487 1341.05 418.409C1364.34 403.308 1409.43 384.401 1437.52 373.274C1465.61 362.148 1496.09 346.247 1509.22 340.963C1522.34 335.678 1531.87 330.806 1538.13 337.011L1538.1 336.987Z" fill="#DFA85B"/>
<path d="M1685.31 317.33C1690.48 325.062 1651.47 345.206 1622.8 360.549C1594.13 375.893 1550.34 399.188 1529.05 412.326C1507.77 425.464 1477.25 441.535 1463.13 434.191C1449.01 426.846 1453.36 420.834 1490.56 401.224C1527.75 381.614 1559.54 369.397 1596.64 350.49C1633.75 331.607 1678.65 307.343 1685.31 317.33Z" fill="#7CB7F6"/>
<path d="M1690.9 449.534C1643.94 449.316 1549.29 446.965 1528.63 468.926C1507.98 490.888 1527.12 513.843 1511.36 518.909C1495.61 523.975 1414.87 510.692 1374.86 524.727C1334.85 538.762 1305.04 576.77 1314.2 591.047C1323.36 605.325 1325.69 608.379 1308.33 615.433C1290.98 622.487 1257.14 636.691 1259.92 642.606C1262.67 648.521 1291.73 636.764 1313.14 629.347C1334.55 621.929 1357.08 612.451 1379.06 607.216C1401.05 601.98 1425.54 591.241 1451.19 578.491C1476.83 565.741 1591.83 527.854 1629.75 516.146C1667.68 504.438 1757.19 478.331 1761.3 460.685C1765.41 443.038 1736.32 449.728 1690.9 449.51V449.534Z" fill="#AF4889"/>
<path d="M1166.14 526.569C1166.14 526.569 1107.69 503.807 1081.65 510.498C1055.62 517.188 1064.84 535.731 1039.11 538.543C1013.37 541.331 983.495 532.483 968.405 539.343C953.316 546.203 961.722 569.667 955.916 573.449C950.08 577.23 922.471 584.842 924.557 589.278C926.644 593.713 943.397 594.441 979.05 579.679C1014.7 564.941 1078.63 551.148 1099.22 542.955C1119.82 534.738 1167.66 535.247 1166.14 526.593V526.569Z" fill="#AF4889"/>
<path d="M906.474 598.392C913.943 595.483 918.57 600.743 915.516 603.725C912.462 606.706 901.001 606.222 892.14 612.694C883.31 619.166 868.372 631.407 863.654 626.753C858.937 622.074 864.894 617.372 878.079 611.506C891.263 605.64 906.414 598.392 906.414 598.392H906.474Z" fill="#7CB7F6"/>
<path d="M917.602 494.088C918.933 497.53 907.139 506.111 894.862 511.759C882.584 517.431 863.624 526.521 849.865 536.702C836.105 546.882 830.844 546.446 821.227 552.021C811.611 557.597 807.135 557.912 805.896 553.912C804.656 549.913 817.447 547.149 826.338 540.241C835.228 533.308 856.457 513.795 872.756 504.511C889.056 495.227 913.641 483.786 917.602 494.088Z" fill="#DFA85B"/>
<path d="M781.129 566.759C780.857 568.892 782.792 570.807 785.453 571.025C788.114 571.244 790.503 569.692 790.775 567.559C791.047 565.426 789.112 563.511 786.451 563.293C783.79 563.075 781.401 564.626 781.129 566.759Z" fill="#DFA85B"/>
<path d="M1073.1 790.203C1074.76 793.16 1076.3 796.215 1098.35 793.597C1120.39 790.979 1147.76 787.246 1159.31 784.992C1170.86 782.737 1214.2 773.841 1239.33 778.301C1264.45 782.786 1268.54 780.483 1289.37 776.677C1310.21 772.872 1346.83 756.679 1418.41 745.844C1489.98 735.009 1491.83 737.554 1500.78 736.633C1509.73 735.712 1515.45 732.124 1520.41 735.009C1525.37 737.893 1530.29 740.802 1559.96 737.142C1589.63 733.482 1605.71 715.205 1613.94 703.521C1622.16 691.813 1661.78 624.547 1666.16 609.591C1670.55 594.659 1634.56 560.02 1572.03 584.963C1509.46 609.906 1441.27 674.457 1431.29 680.663C1421.31 686.844 1416.23 681.657 1405.77 676.057C1395.3 670.433 1362.95 663.016 1307.24 708.417C1251.57 753.819 1248.34 757.916 1234.46 752.583C1220.58 747.25 1210.48 737.627 1179.66 748.389C1148.88 759.152 1134.3 776.096 1122.24 779.271C1110.17 782.471 1088 784.41 1081.23 785.67C1074.43 786.955 1071.67 787.682 1073.1 790.227V790.203Z" fill="#7B7CF1"/>
<path d="M471.321 577.328C475.797 574.928 457.653 564.529 434.822 551.124C412.021 537.72 361.097 464.612 289.639 428.64C218.182 392.692 201.46 420.713 192.327 424.979C183.195 429.246 169.526 417.053 161.15 404.86C152.803 392.667 88.9365 304.313 28.8799 278.133C-31.1768 251.93 -59.2999 268.995 -65.3781 273.867C-71.4564 278.739 -91.9893 242.791 -126.947 233.653C-161.904 224.514 -152.802 278.133 -152.802 287.878C-152.802 297.622 -145.212 305.549 -134.567 311.633C-123.923 317.717 -88.9654 335.388 -72.9987 342.103C-57.032 348.817 -15.2402 369.518 -6.10772 373.784C3.02476 378.051 30.3919 390.243 43.3044 399.988C56.2169 409.732 83.5841 416.447 94.2286 418.871C104.873 421.319 122.352 422.531 145.153 434.094C167.954 445.68 208.989 464.563 230.278 474.914C251.567 485.264 316.946 513.916 320.726 515.128C324.536 516.34 331.371 512.68 331.371 512.68C331.371 512.68 344.283 519.394 348.849 522.424C353.416 525.478 364.816 527.902 369.382 523.636C373.949 519.37 400.56 540.095 414.228 548.627C427.897 557.16 455.264 570.565 460.586 573.619C465.908 576.673 466.664 579.703 471.231 577.279L471.321 577.328Z" fill="#7B7CF1"/>
<path d="M-124.619 264.752C-124.619 264.752 -36.4395 309.814 -24.283 318.662C-12.1265 327.51 13.7287 332.988 12.2167 339.072C10.7047 345.156 -6.77399 339.678 -21.2287 332.988C-35.6834 326.273 -108.653 289.113 -124.619 281.817C-140.586 274.497 -142.098 270.23 -142.098 264.752C-142.098 259.274 -131.756 261.092 -124.619 264.752Z" fill="white"/>
<path d="M36.7113 346.562C40.4611 347.677 43.7572 352.21 41.6102 355.167C39.4632 358.125 35.1691 358.125 31.4798 356.404C27.7905 354.682 25.6435 351.992 26.8833 349.035C28.1232 346.077 30.875 344.865 36.6811 346.586L36.7113 346.562Z" fill="white"/>
<path d="M-106.142 343.363C-108.592 346.175 -101.848 350.49 -91.7482 355.41C-81.648 360.331 22.922 412.908 38.8585 420.543C54.7949 428.155 71.064 436.517 74.7231 431.597C78.3821 426.676 67.9795 423.234 57.2443 420.301C46.5091 417.368 6.65283 392.522 -8.98125 385.662C-24.6153 378.778 -49.14 366.73 -66.6188 358.634C-84.0975 350.514 -90.2361 348.453 -95.4374 345.811C-100.639 343.169 -104.026 340.939 -106.173 343.412L-106.142 343.363Z" fill="#DFA85B"/>
<path d="M-75.781 410.217C-77.7466 412.908 -72.3941 419.307 -61.9916 423.985C-51.5588 428.664 4.83883 451.255 29.6659 460.612C54.4929 469.944 73.8163 476.101 79.955 478.792C86.0937 481.507 89.148 476.344 83.6443 473.387C78.1406 470.429 75.3585 469.217 65.2583 462.091C55.1279 454.964 42.4877 439.717 26.5814 435.306C10.6752 430.894 10.3727 444.88 2.72202 443.911C-4.9287 442.917 -10.765 438.748 -20.5627 429.9C-30.3605 421.052 -43.5452 415.647 -54.8852 412.447C-66.2252 409.248 -72.6662 406.048 -75.7204 410.241L-75.781 410.217Z" fill="#AF4889"/>
<path d="M170.402 555.439C170.402 555.439 -44.8156 473.363 -54.6134 469.169C-64.4111 464.976 -68.4028 465.969 -69.9451 468.175C-71.4873 470.381 -69.0379 472.854 -55.5508 478.502C-42.0638 484.149 153.529 559.851 162.419 562.784C171.31 565.717 174.999 566.469 176.511 562.784C178.053 559.1 173.487 556.603 170.372 555.415L170.402 555.439Z" fill="#7B7CF1"/>
<path d="M571.718 690.286C577.373 686.384 557.173 678.966 551.609 675.548C546.044 672.131 536.64 659.792 527.235 666.289C527.235 666.289 519.101 647.43 504.132 639.213C489.163 630.995 480.605 647.091 475.918 645.394C471.2 643.673 433.159 613.518 410.055 597.762C386.952 582.006 369.443 572.068 358.314 578.225C347.186 584.382 345.916 587.484 345.916 587.484C345.916 587.484 334.788 584.067 333.518 589.545C332.248 595.023 336.512 596.405 369.443 610.464C402.374 624.523 537.063 681.075 551.185 686.214C565.307 691.353 568.724 692.395 571.718 690.335V690.286Z" fill="#AF4889"/>
<path d="M620.465 591.581C617.199 596.55 606.796 591.241 593.944 585.06C581.122 578.879 438.299 517.891 422.907 511.031C407.514 504.171 401.95 500.753 404.944 496.633C407.938 492.512 417.766 495.251 430.588 501.093C443.409 506.91 571.264 563.487 584.963 570.322C598.631 577.182 624.728 585.06 620.465 591.581Z" fill="#7CB7F6"/>
<path d="M307.904 394.486C304.88 396.643 301.916 398.946 283.107 389.347C264.298 379.748 241.195 367.41 231.79 361.592C222.385 355.774 187.307 333.498 162.087 329.377C136.867 325.256 134.296 321.838 117.18 311.561C100.064 301.283 74.8444 274.546 14.9692 241.289C-44.906 208.032 -47.8998 209.753 -55.5808 205.995C-63.292 202.214 -66.709 197.075 -72.6966 198.117C-78.6841 199.135 -84.6718 200.178 -109.892 187.161C-135.112 174.144 -140.555 152.207 -142.128 138.826C-143.7 125.446 -145.696 51.0775 -142.128 36.0002C-138.559 20.923 -88.0888 1.04616 -43.636 44.2176C0.847082 87.4133 30.3311 168.642 36.3186 177.562C42.3061 186.482 49.5637 183.379 61.9621 181.683C74.3605 179.962 107.715 183.743 135.506 243.373C163.296 303.004 164.143 307.803 179.535 307.464C194.927 307.125 209.049 301.646 231.699 321.523C254.349 341.4 259.066 361.616 268.471 368.476C277.876 375.336 297.108 384.329 302.672 387.723C308.237 391.116 310.384 392.692 307.813 394.534L307.904 394.486Z" fill="#AF4889"/>
<path d="M-117.482 99.3638C-117.482 99.3638 -32.0541 156.594 -5.14053 175.114C21.8033 193.633 47.8702 212.468 53.011 215.91C58.1518 219.328 62.4157 223.448 58.9986 227.23C55.5815 231.011 49.5939 226.212 42.3363 221.752C35.0787 217.291 -117.149 119.265 -121.443 116.526C-125.707 113.787 -130.002 108.987 -130.848 101.109C-131.695 93.2311 -122.502 96.0187 -117.482 99.3881V99.3638Z" fill="#DFA85B"/>
<path d="M-27.3364 29.1146C-23.7983 26.2785 -18.3551 30.1327 -4.68658 43.1738C8.9819 56.1907 29.0915 91.169 37.226 120.984C45.3606 150.799 28.6681 135.383 25.251 125.105C21.8339 114.827 14.9997 94.6111 0.0308556 70.6135C-14.9379 46.6159 -17.5084 45.2584 -21.3489 41.1376C-25.1893 37.0168 -30.7535 31.8779 -27.3364 29.1388V29.1146Z" fill="#7B7CF1"/>
<path d="M42.3362 150.436C45.4207 150.776 49.5938 153.854 50.4708 158.654C51.3478 163.453 50.4708 167.235 46.4187 167.235C42.3665 167.235 41.6407 163.38 39.4332 158.799C37.2257 154.218 40.1287 150.194 42.3665 150.436H42.3362Z" fill="#7B7CF1"/>
<path d="M376.731 433.052C374.372 436.082 366.026 432.179 356.621 425.319C347.217 418.459 326.684 411.527 326.684 405.394C326.684 399.261 344.223 408.521 351.692 412.981C359.161 417.441 380.541 428.083 376.701 433.052H376.731Z" fill="#AF4889"/>
<path d="M712.394 795.851C701.75 795.003 688.444 794.833 682.033 790.373C675.623 785.913 661.924 772.557 626.452 751.298C590.951 730.04 565.73 720.441 555.902 726.961C546.074 733.482 549.068 748.22 531.106 744.778C513.143 741.36 470.807 703.982 400.68 677.245C330.554 650.508 257.01 658.677 257.434 691.256C257.857 723.859 254.863 731.058 235.631 724.198C216.398 717.338 126.585 681.002 41.0664 653.247C-44.4523 625.493 -106.898 609.712 -123.56 641.588C-140.222 673.464 -131.695 710.817 -127.401 714.429C-123.106 718.041 -29.4835 729.676 1.72421 735.857C32.9319 742.039 304.457 778.714 378 785.549C451.544 792.409 700.419 808.505 715.388 809.208C730.357 809.886 735.044 808.529 735.498 803.729C735.921 798.93 730.78 797.281 712.394 795.851Z" fill="#AF4889"/>
<path d="M651.249 751.638C647.862 752.196 644.838 753.699 635.857 745.457C626.875 737.24 613.63 727.98 602.925 724.199C592.22 720.417 587.533 718.381 587.956 714.43C588.38 710.479 598.208 711.836 610.183 716.636C622.158 721.435 640.12 733.798 645.231 737.894C650.372 742.015 655.724 750.863 651.219 751.614L651.249 751.638Z" fill="#DFA85B"/>
<path d="M81.6789 650.872C79.1992 654.339 66.71 649.49 49.5942 642.655C32.4784 635.795 -11.9745 618.318 -43.1822 613.858C-74.3899 609.398 -72.4545 609.398 -76.2042 604.598C-79.954 599.799 -63.2615 601.859 -35.8943 605.98C-8.52705 610.1 45.3002 630.486 53.223 633.831C61.1459 637.177 86.8197 643.697 81.6789 650.872Z" fill="#DFA85B"/>
<path d="M110.77 659.089C108.744 661.537 113.764 665.61 118.481 667.67C123.198 669.731 126.616 671.088 127.886 667.67C129.156 664.252 124.892 661.15 121.051 659.089C117.211 657.029 113.34 656.011 110.8 659.089H110.77Z" fill="#DFA85B"/>
<path d="M184.736 778.374C184.736 781.961 178.325 785.573 147.118 782.155C115.91 778.737 -42.7289 761.939 -71.8198 758.497C-100.911 755.079 -113.4 753.697 -115.426 747.177C-117.452 740.656 -110.285 739.978 -89.3287 742.717C-68.3724 745.456 83.3417 762.254 110.316 765.333C137.29 768.411 148.448 768.751 159.123 770.472C169.798 772.193 184.767 772.193 184.767 778.35L184.736 778.374Z" fill="#7CB7F6"/>
<path d="M267.201 302.858C273.824 308.166 278.39 310.833 286.252 314.808C294.115 318.784 305.304 329.74 299.921 334.394C294.538 339.048 282.926 331.413 275.064 325.765C267.201 320.117 256.012 307.827 246.063 302.858C236.114 297.864 226.589 287.587 213.344 280.266C200.099 272.946 188.91 266.983 188.063 262.013C187.247 257.02 188.486 253.554 199.675 257.941C210.864 262.329 215.007 267.637 224.956 273.285C234.905 278.933 248.997 287.902 257.676 294.204C266.385 300.507 267.201 302.834 267.201 302.834V302.858Z" fill="#7CB7F6"/>
</g>
<path d="M1162.88 564.724C1162.88 564.724 1144.74 617.04 1114.44 620.789C1084.13 624.539 964.415 579.421 964.415 579.421C964.415 579.421 947.813 581.205 942.733 569.23C937.652 557.286 971.945 495.777 971.945 495.777L1044.97 519.909C1044.97 519.909 1065.14 530.07 1068.65 523.205C1068.65 523.205 1099.62 543.587 1122.63 551.752C1145.64 559.947 1162.91 564.724 1162.91 564.724H1162.88Z" fill="#D47076"/>
<path d="M1063.93 525.564C1063.93 525.564 1072.37 540.26 1096.93 558.404C1121.48 576.548 1153.32 585.62 1153.32 585.62C1153.32 585.62 1159.31 574.825 1162.85 564.725C1162.85 564.725 1103.58 548.879 1068.59 523.205C1068.59 523.205 1066.66 525.685 1063.9 525.564H1063.93Z" fill="#443590"/>
<path d="M1192.21 244.091C1192.21 244.091 1190.91 257.971 1199.92 263.686C1208.93 269.401 1231.71 271.155 1245.86 272.94C1260.01 274.693 1268.11 267.98 1272.2 260.874C1276.28 253.798 1243.71 241.671 1228.53 237.498C1213.35 233.325 1190.88 233.144 1192.21 244.091Z" fill="#DFA85B"/>
<path d="M1203.52 172.935C1203.52 172.935 1192.45 174.085 1188.95 185.969C1185.44 197.853 1185.8 215.03 1185.8 215.03C1185.8 215.03 1190.55 210.736 1196.72 211.885C1196.72 211.885 1196.26 200.787 1197.78 192.743C1199.29 184.729 1203.52 172.905 1203.52 172.905V172.935Z" fill="#DFA85B"/>
<path d="M1349.58 424.35C1352.06 421.477 1357.59 424.35 1349.67 457.947C1341.75 491.543 1326.54 529.737 1320.25 536.42C1313.96 543.103 1311.51 540.018 1312.96 520.06C1314.38 500.132 1321.73 479.992 1328.41 464.176C1335.1 448.361 1342.17 432.878 1349.55 424.32L1349.58 424.35Z" fill="#443590"/>
<path d="M1342.51 576.7C1342.51 576.7 1356.57 530.221 1357.35 525.534C1358.14 520.846 1359.98 516.945 1353.78 514.98C1347.59 513.014 1317.89 503.247 1317.89 503.247C1317.89 503.247 1315.17 472.372 1320.25 457.554C1325.33 442.737 1346.19 428.766 1346.19 428.766C1346.19 428.766 1391.74 441.134 1414.42 450.901C1437.07 460.669 1439.82 481.383 1438.64 509.506C1437.46 537.63 1412.84 608.724 1412.84 608.724L1342.54 576.7H1342.51Z" fill="#D47076"/>
<path d="M1328.41 464.207C1328.41 464.207 1327.26 479.871 1335.01 486.282C1342.75 492.693 1364.01 500.677 1365.55 510.172C1367.09 519.697 1351.79 545.492 1351.79 545.492C1351.79 545.492 1355.87 530.584 1356.87 525.473C1357.5 522.177 1358.86 516.401 1353.78 514.98C1346.1 512.833 1316.95 503.579 1316.95 503.579C1316.95 503.579 1319.61 484.831 1328.41 464.207Z" fill="#443590"/>
<path d="M1318.22 261.478C1318.22 261.478 1321.58 257.819 1328.32 273.211C1335.04 288.603 1337.09 330.637 1331.53 332.149C1325.96 333.661 1312.66 317.21 1311.96 302.937C1310.51 273.211 1318.25 261.478 1318.25 261.478H1318.22Z" fill="#443590"/>
<path d="M1130.55 362.147C1130.55 362.147 1123.33 368.981 1134.85 375.937C1146.37 382.892 1240.23 391.057 1255.84 393.234C1271.44 395.381 1282.45 393.113 1285.02 390.452C1287.59 387.791 1287.29 372.61 1254.87 359.153C1222.45 345.697 1152.45 344.789 1130.55 362.177V362.147Z" fill="#443590"/>
<path d="M1280.72 382.226L1274.07 401.852C1274.07 401.852 1243.35 408.807 1194.6 401.852C1145.88 394.896 1131.7 385.28 1131.7 385.28L1138.84 359.788C1138.84 359.788 1148.27 348.115 1192.42 349.053C1236.6 349.99 1277.97 367.408 1280.69 382.226H1280.72Z" fill="#D47076"/>
<path d="M1105.88 287.575C1105.88 287.575 1063.15 288.603 1043.98 293.26C1024.8 297.948 1009.77 307.776 1001.91 324.256C994.05 340.737 984.948 377.146 979.535 386.248C974.122 395.351 970.675 398.556 967.227 400.008C963.78 401.489 960.091 404.423 961.089 407.628C962.086 410.833 968.225 411.801 972.156 411.075C976.088 410.35 983.708 403.455 984.706 402.215C985.704 400.975 983.224 410.833 978.809 415.007C974.394 419.18 970.947 424.593 975.12 429.28C979.293 433.967 987.669 429.28 987.669 429.28C987.669 429.28 985.704 433.453 989.151 435.933C992.599 438.382 1002.18 431.76 1002.18 431.76C1002.18 431.76 1001.46 436.931 1008.08 437.898C1014.73 438.896 1021.36 433.967 1029.22 420.178C1037.08 406.388 1041.77 374.424 1047.18 361.391C1052.59 348.358 1061.46 339.981 1070.56 338.53C1079.66 337.078 1093.18 336.806 1093.18 336.806C1093.18 336.806 1102.64 325.98 1105.91 311.465C1109.17 296.95 1105.91 287.575 1105.91 287.575H1105.88Z" fill="#D47076"/>
<path d="M987.67 429.28C987.67 429.28 996.288 422.325 1000.92 410.289Z" fill="#D47076"/>
<path d="M987.67 429.28C987.67 429.28 996.288 422.325 1000.92 410.289" stroke="#443590" stroke-width="0.96" stroke-miterlimit="10" stroke-linecap="round"/>
<path d="M1014.61 414.734C1014.61 414.734 1011.01 424.532 1002.18 431.76Z" fill="#D47076"/>
<path d="M1014.61 414.734C1014.61 414.734 1011.01 424.532 1002.18 431.76" stroke="#443590" stroke-width="0.96" stroke-miterlimit="10" stroke-linecap="round"/>
<path d="M1263.67 261.811L1258.86 272.758L1264.7 272.062C1264.7 272.062 1257.65 286.124 1236.21 287.485C1214.77 288.845 1211.35 273.242 1211.35 273.242L1219.07 272.213L1227.11 255.309C1227.11 255.309 1249.09 250.169 1263.67 261.811Z" fill="#D47076"/>
<path d="M1263.67 261.81L1260.92 268.04C1260.92 268.04 1252.81 269.672 1241.17 268.04C1229.53 266.407 1224.03 261.81 1224.03 261.81L1227.11 255.308C1227.11 255.308 1236.91 253.192 1246.86 254.825C1256.81 256.458 1263.67 261.81 1263.67 261.81Z" fill="#443590"/>
<path d="M1264.67 272.062L1318.19 261.478C1318.19 261.478 1313.51 301.878 1320.64 318.843C1327.78 335.807 1331.47 332.118 1331.47 332.118L1292.37 342.702C1292.37 342.702 1291.37 361.874 1289.92 372.7C1288.44 383.526 1289.19 388.183 1284.99 390.421C1284.99 390.421 1282.78 379.111 1268.02 373.214C1253.27 367.318 1239.24 368.527 1225.48 372.972C1211.72 377.418 1202.86 372.972 1184.17 365.594C1165.48 358.215 1147.28 356.008 1130.55 362.147C1130.55 362.147 1133 353.044 1136.21 348.115C1139.41 343.186 1141.86 338.529 1141.86 338.529C1141.86 338.529 1100.56 340.737 1098.08 340.979C1095.63 341.22 1093.66 339.497 1092.66 335.082C1091.66 330.667 1095.63 309.983 1101.52 296.465C1107.42 282.948 1110.38 280.226 1117.01 279.743C1123.66 279.259 1141.11 278.745 1152.66 278.261C1164.21 277.777 1176.03 276.295 1186.86 276.537C1197.69 276.779 1211.32 273.241 1211.32 273.241C1211.32 273.241 1214.68 288.573 1236.18 287.484C1257.68 286.395 1264.67 272.062 1264.67 272.062Z" fill="white"/>
<path d="M1288.65 382.498L1293.85 326.978" stroke="#443590" stroke-width="0.96" stroke-miterlimit="10" stroke-linecap="round"/>
<path d="M1161.31 296.979L1141.86 338.529" stroke="#443590" stroke-width="0.96" stroke-miterlimit="10" stroke-linecap="round"/>
<path d="M1317.22 273.211C1317.22 273.211 1333.86 272.606 1340.87 268.766C1347.89 264.925 1359.29 256.942 1366.03 233.748C1372.75 210.523 1381.54 176.292 1392.34 160.234C1403.17 144.147 1420.43 135.075 1427.72 131.869C1435.04 128.664 1444.11 130.115 1442.63 138.582C1442.63 138.582 1450.52 135.952 1453.76 138.28C1456.96 140.609 1456.96 144.993 1455.21 147.352C1455.21 147.352 1459.9 146.475 1461.65 150.86C1463.4 155.245 1459.02 159.055 1459.02 159.055C1459.02 159.055 1463.34 160.718 1462.07 165.738C1460.77 170.758 1456.12 173.086 1448.5 182.763C1440.88 192.44 1436.49 202.661 1433.59 217.872C1430.65 233.082 1426.87 261.75 1411.66 280.166C1396.45 298.582 1365.82 316.333 1323.24 324.407C1323.24 324.407 1313.47 311.676 1317.25 273.241L1317.22 273.211Z" fill="#D47076"/>
<path d="M1418.56 182.824C1418.56 182.824 1419.62 173.056 1412.75 169.367C1412.75 169.367 1426.48 166.736 1423.85 158.813C1421.22 150.89 1401.02 151.344 1392.37 160.235C1392.37 160.235 1388.5 165.95 1385.57 173.087" fill="#D47076"/>
<path d="M1418.56 182.824C1418.56 182.824 1419.62 173.056 1412.75 169.367C1412.75 169.367 1426.48 166.736 1423.85 158.813C1421.22 150.89 1401.02 151.344 1392.37 160.235C1392.37 160.235 1388.5 165.95 1385.57 173.087" stroke="#443590" stroke-width="0.96" stroke-miterlimit="10" stroke-linecap="round"/>
<path d="M1442.66 138.552C1442.66 138.552 1441.27 142.664 1437.04 144.267C1432.8 145.84 1427.9 146.112 1420.19 154.972" fill="#D47076"/>
<path d="M1442.66 138.552C1442.66 138.552 1441.27 142.664 1437.04 144.267C1432.8 145.84 1427.9 146.112 1420.19 154.972" stroke="#443590" stroke-width="0.96" stroke-miterlimit="10" stroke-linecap="round"/>
<path d="M1455.24 147.322C1455.24 147.322 1451.31 151.495 1447.35 153.159C1443.39 154.822 1436.91 157.967 1431.44 163.259" fill="#D47076"/>
<path d="M1455.24 147.322C1455.24 147.322 1451.31 151.495 1447.35 153.159C1443.39 154.822 1436.91 157.967 1431.44 163.259" stroke="#443590" stroke-width="0.96" stroke-miterlimit="10" stroke-linecap="round"/>
<path d="M1459.05 159.024C1459.05 159.024 1454.21 161.686 1451.31 163.258C1448.41 164.83 1440.75 171.846 1440.75 171.846" fill="#D47076"/>
<path d="M1459.05 159.024C1459.05 159.024 1454.21 161.686 1451.31 163.258C1448.41 164.83 1440.75 171.846 1440.75 171.846" stroke="#443590" stroke-width="0.96" stroke-miterlimit="10" stroke-linecap="round"/>
<path d="M1274.07 401.852V404.936C1274.07 404.936 1348.34 423.11 1349.58 424.32C1350.79 425.529 1339.21 434.087 1327.6 466.474C1315.99 498.861 1312.93 530.613 1313.84 536.42C1314.75 542.226 1320.25 536.42 1320.25 536.42C1320.25 536.42 1320.25 544.947 1304.37 538.99C1288.5 533.063 1210.6 505.242 1210.6 505.242C1210.6 505.242 1201.44 488.066 1200.53 471.464C1199.62 454.862 1210.05 403.666 1210.05 403.666C1210.05 403.666 1243.2 407.779 1274.1 401.852H1274.07Z" fill="#DFA85B"/>
<path d="M1131.73 385.311C1131.73 385.311 1113.98 413.131 1105.79 429.31C1097.59 445.488 1079.63 491.181 1059.7 513.044C1059.7 513.044 1085.62 548.213 1128.32 559.13C1171.01 570.077 1185.86 561.852 1185.86 561.852L1210.6 505.273C1210.6 505.273 1209.69 490.364 1207.15 468.108C1204.61 445.851 1210.02 403.666 1210.02 403.666C1210.02 403.666 1164.3 401.701 1131.7 385.28L1131.73 385.311Z" fill="#DFA85B"/>
<path d="M1321.97 484.286L1232.37 464.207" stroke="#443590" stroke-width="0.96" stroke-miterlimit="10" stroke-linecap="round"/>
<path d="M1232.37 450.932C1232.37 450.932 1232.43 480.174 1206.21 495.445L1210.6 505.303" stroke="#443590" stroke-width="0.96" stroke-miterlimit="10" stroke-linecap="round"/>
<path d="M1156.65 394.776L1148.76 417.335L1141.86 414.734L1149.24 392.387L1156.65 394.776Z" stroke="#443590" stroke-width="0.96" stroke-miterlimit="10" stroke-linecap="round"/>
<path d="M1093.84 543.829L1143.8 415.46" stroke="#443590" stroke-width="0.96" stroke-miterlimit="10" stroke-linecap="round"/>
<path d="M1326.48 621.243C1326.48 621.243 1339 588.311 1342.51 576.699C1342.51 576.699 1364.37 577.879 1387.44 588.795C1410.49 599.742 1412.84 608.723 1412.84 608.723C1412.84 608.723 1401.5 638.419 1398 643.499C1394.49 648.58 1393.31 657.954 1362.83 655.595C1332.34 653.237 1326.51 621.212 1326.51 621.212L1326.48 621.243Z" fill="#DFA85B"/>
<path d="M1416.53 751.275C1416.53 751.275 1419.74 745.076 1416.53 731.8C1413.33 718.525 1404.41 697.901 1402.32 685.533C1400.23 673.165 1398.63 642.411 1398.63 642.411C1398.63 642.411 1382.39 643.832 1373.23 651.15C1373.23 651.15 1350.31 644.044 1342.99 638.087C1335.67 632.129 1327.2 619.308 1327.2 619.308C1327.2 619.308 1324.66 620.91 1321.7 627.321C1318.74 633.732 1315.98 643.802 1315.98 643.802L1416.56 751.245L1416.53 751.275Z" fill="#443590"/>
<path d="M1381.48 670.625H1402.11" stroke="white" stroke-width="0.96" stroke-miterlimit="10" stroke-linecap="round"/>
<path d="M1383.78 684.384L1402.11 684.052" stroke="white" stroke-width="0.96" stroke-miterlimit="10" stroke-linecap="round"/>
<path d="M1315.95 643.832C1315.95 643.832 1311.36 644.981 1312.75 650.243C1314.11 655.505 1411.03 756.295 1411.03 756.295C1411.03 756.295 1417.89 759.258 1416.53 751.244L1315.95 643.802V643.832Z" fill="white"/>
<path d="M1336.03 631.041C1336.03 631.041 1340.6 648.792 1331.38 660.283L1315.98 643.832C1315.98 643.832 1320.61 624.146 1327.23 619.338C1327.23 619.338 1333.01 627.654 1336.06 631.041H1336.03Z" fill="white"/>
<path d="M1409.15 708.727C1409.15 708.727 1389.07 698.385 1376.74 708.727L1416.56 751.275C1416.56 751.275 1420.55 745.046 1416.56 731.8C1412.57 718.555 1409.18 708.727 1409.18 708.727H1409.15Z" fill="white"/>
<path d="M1409.85 616.345C1409.85 616.345 1397.9 605.216 1376.71 596.568C1355.51 587.919 1339.36 586.165 1339.36 586.165L1337.15 592.425C1337.15 592.425 1368.63 597.777 1387.05 608.754C1405.46 619.731 1406.8 623.995 1406.8 623.995L1409.85 616.345Z" fill="white"/>
<path d="M1032.51 515.796C1032.51 515.796 1018.39 534.726 1013.52 551.994C1008.66 569.261 1004.21 593.634 1004.21 593.634L964.384 579.421C964.384 579.421 957.368 581.266 949.052 576.367C940.736 571.468 941.522 566.69 944.214 555.562C946.905 544.433 971.914 495.777 971.914 495.777L1032.51 515.796Z" fill="#DFA85B"/>
<path d="M1000.46 538.719C994.291 556.197 988.636 588.07 988.636 588.07L994.533 590.278C994.533 590.278 999.613 562.366 1006.42 542.226C1013.74 520.635 1022.72 512.561 1022.72 512.561L1015.82 510.293C1015.82 510.293 1006.24 522.359 1000.46 538.719Z" fill="white"/>
<path d="M975.119 496.836C975.119 496.836 976.782 494.024 973.244 492.905C969.706 491.786 954.223 485.164 951.351 487.825C948.478 490.486 889.389 628.108 889.389 628.108C889.389 628.108 901.334 638.057 916.393 623.028C931.453 607.998 945.817 590.278 964.414 579.452C964.414 579.452 961.088 572.376 956.461 569.715C951.804 567.053 946.724 564.846 946.724 564.846C946.724 564.846 951.139 546.279 958.457 531.007C965.745 515.736 975.149 496.866 975.149 496.866L975.119 496.836Z" fill="#443590"/>
<path d="M918.812 541.107C912.613 555.29 892.927 601.315 889.389 609.51C885.851 617.705 881.557 624.993 889.389 628.108L951.351 487.824C951.351 487.824 948.931 484.286 945.151 484.286C941.371 484.286 939.164 488.036 937.864 491.362C936.533 494.689 918.843 541.107 918.843 541.107H918.812Z" fill="white"/>
<path d="M930.938 607.907C930.938 607.907 925.677 609.086 918.147 607.091C910.617 605.095 904.237 593.634 904.237 593.634L889.389 628.107C889.389 628.107 892.836 631.464 901.394 631.222C909.952 630.98 914.972 624.509 918.359 621.031C921.746 617.554 930.938 607.907 930.938 607.907Z" fill="white"/>
<path d="M946.24 592.908L933.418 579.875" stroke="white" stroke-width="0.96" stroke-miterlimit="10" stroke-linecap="round"/>
<path d="M938.257 600.438C938.257 600.438 928.55 592.999 923.893 590.308" stroke="white" stroke-width="0.96" stroke-miterlimit="10" stroke-linecap="round"/>
<path d="M1274.07 401.852C1274.07 401.852 1253.63 409.533 1204.73 403.303C1155.83 397.074 1131.73 385.28 1131.73 385.28" stroke="#443590" stroke-width="0.96" stroke-miterlimit="10" stroke-linecap="round"/>
<path d="M1273.92 172.542C1273.92 172.542 1278.4 172.632 1285.38 181.432C1292.37 190.232 1293.46 200.09 1294.42 203.417C1295.39 206.743 1300.77 212.791 1303.16 224.222C1306.31 239.16 1295.69 261.266 1261.37 261.901C1227.05 262.536 1208.6 243.454 1208.6 243.454C1208.6 243.454 1203.19 248.535 1192.24 244.089C1181.27 239.644 1179.06 226.278 1182.72 218.809C1186.38 211.339 1199.65 208.436 1206.12 215.513C1206.12 215.513 1203.28 203.87 1207.94 184.638C1207.94 184.638 1225.75 164.921 1248.73 165.738C1271.71 166.524 1273.95 172.542 1273.95 172.542H1273.92Z" fill="#D47076"/>
<path d="M1267.54 189.899C1267.54 189.899 1270.23 196.734 1271.83 201.028C1273.44 205.322 1276.13 209.918 1270.56 210.886" stroke="#443590" stroke-width="0.96" stroke-miterlimit="10" stroke-linecap="round"/>
<path d="M1245.89 191.532C1252.09 192.107 1255.56 194.345 1256.96 197.852C1258.38 201.421 1257.65 207.378 1250.54 206.38C1243.44 205.382 1242.02 206.773 1239.11 206.471C1236.21 206.168 1232.16 201.3 1235.3 196.431C1237.72 192.712 1242.71 191.23 1245.89 191.532Z" fill="white" stroke="#443590" stroke-width="0.96" stroke-miterlimit="10" stroke-linecap="round"/>
<path d="M1244.56 191.503C1244.56 191.503 1248.16 196.009 1246.37 200.363C1244.59 204.718 1237.42 205.02 1234.28 201.029C1234.28 201.029 1234.73 192.682 1244.56 191.503Z" fill="#443590"/>
<path d="M1283.33 194.345C1287.35 194.497 1291.49 199.002 1291.34 202.964C1291.22 206.774 1288.34 207.772 1285.93 206.986C1283.51 206.2 1281.21 208.074 1278.61 207.228C1276.01 206.381 1274.43 194.013 1283.33 194.345Z" fill="white" stroke="#443590" stroke-width="0.96" stroke-miterlimit="10" stroke-linecap="round"/>
<path d="M1283.33 194.345C1283.33 194.345 1286.02 199.365 1283.96 202.873C1281.93 206.381 1276.79 203.871 1276.79 203.871C1276.79 203.871 1275.4 193.741 1283.33 194.345Z" fill="#443590"/>
<path d="M1262.49 222.589C1268.51 225.281 1272.98 225.099 1276.7 224.706C1280.42 224.313 1286.14 224.646 1287.35 232.115C1288.34 238.344 1276.61 247.265 1261.88 243.334C1247.16 239.433 1238.42 227.397 1240.14 220.896C1241.87 214.394 1251.57 216.39 1255.99 219.082C1260.4 221.773 1262.49 222.589 1262.49 222.589Z" fill="#443590"/>
<path d="M1278.52 224.615C1278.52 224.615 1281.72 230.573 1280.72 241.429C1280.72 241.429 1274.56 244.846 1266.66 244.211C1258.77 243.576 1250.73 239.766 1245.28 233.597C1239.84 227.428 1238.87 221.924 1241.9 218.053C1244.95 214.183 1253.36 216.934 1257.08 219.777C1260.8 222.62 1269.2 226.006 1278.52 224.615Z" fill="white"/>
<path d="M1280.66 232.901C1280.66 232.901 1276.22 234.231 1266.57 233.506C1250.03 232.296 1241.14 219.111 1241.14 219.111" stroke="#443590" stroke-width="0.96" stroke-miterlimit="10" stroke-linecap="round"/>
<path d="M1186.26 231.117C1186.26 231.117 1184.53 227.367 1187.62 223.073C1190.7 218.809 1201.13 225.008 1202.83 230.179C1202.83 230.179 1196.02 226.823 1194.3 231.782C1192.58 236.742 1200.26 241.187 1203.52 238.798" stroke="#443590" stroke-width="0.96" stroke-linecap="round" stroke-linejoin="round"/>
<path d="M1204.58 171.03C1211.29 159.841 1222.45 151.041 1230.01 152.856C1237.57 154.67 1239.39 164.377 1239.39 164.377C1239.39 164.377 1250.91 138.038 1265.73 137.131C1280.57 136.224 1280.88 163.167 1280.88 163.167C1280.88 163.167 1289.95 154.7 1298.14 161.051C1306.31 167.401 1292.7 197.399 1292.7 197.399C1292.7 197.399 1287.86 176.806 1273.92 172.572C1273.92 172.572 1259.07 179.134 1236.97 168.943C1236.97 168.943 1230.62 184.094 1207.91 184.698C1207.91 184.698 1203.98 197.732 1206.09 215.573C1206.09 215.573 1201.56 211.34 1196.72 211.945C1196.72 211.945 1195.51 186.21 1204.58 171.06V171.03Z" fill="#443590"/>
<path d="M1307.67 672.711C1307.67 672.711 1337.3 697.115 1349.67 715.682C1362.01 734.219 1389.92 752.394 1392.95 759.802C1395.97 767.211 1377.55 775.557 1358.14 751.003C1338.72 726.448 1325.24 707.245 1312.57 695.996C1299.9 684.747 1295.94 662.46 1307.67 672.711Z" fill="#443590"/>
<path d="M1041.04 493.055C1024.02 487.521 1008.9 484.014 994.291 478.117C979.685 472.22 979.716 485.768 999.099 493.055C1018.48 500.343 1043.37 508.296 1046.94 505.303C1050.51 502.309 1058.91 498.892 1041.04 493.055Z" fill="#443590"/>
<path d="M1338.97 168.459C1336.43 160.627 1311 183.156 1307.79 191.684C1304.58 200.211 1307.15 201.844 1321.46 192.258C1335.76 182.672 1342.41 179.134 1338.97 168.459Z" fill="#443590"/>
<path d="M1347.22 200.938C1348.89 194.587 1322.06 198.851 1316.23 203.236C1310.39 207.621 1311.45 209.828 1325.21 209.465C1338.97 209.102 1344.95 209.586 1347.22 200.938Z" fill="#443590"/>
<path d="M299.316 325.647C299.316 325.647 306.543 323.53 348.607 346.997C390.671 370.463 421.818 397.558 425.447 433.937C429.076 470.346 385.802 503.489 385.802 503.489C385.802 503.489 389.038 504.698 395.903 503.489C402.767 502.279 409.662 510.625 403.977 517.157C398.322 523.689 380.51 529.918 371.62 523.78C371.62 523.78 368.656 528.951 362.457 525.322C362.457 525.322 363.122 530.553 354.232 529.949C354.232 529.949 350.603 533.759 338.87 529.949C327.137 526.138 299.104 501.039 320.817 470.315C342.529 439.591 357.74 419.724 322.026 391.631C322.026 391.631 304.185 374.454 299.286 359.909C294.387 345.364 299.286 325.617 299.286 325.617L299.316 325.647Z" fill="#D47076"/>
<path d="M360.492 499.467C360.492 499.467 358.345 513.377 371.65 523.78" stroke="#443590" stroke-width="0.96" stroke-linecap="round" stroke-linejoin="round"/>
<path d="M254.016 639.902C254.016 639.902 251.567 635.85 247.031 638.601C242.525 641.353 242.737 644.74 250.508 679.698C258.31 714.655 269.197 755.812 285.375 769.087C301.553 782.362 305.364 775.921 304.577 768.603C303.791 761.315 253.986 639.902 253.986 639.902H254.016Z" fill="#443590"/>
<path d="M378.393 594.209C378.393 594.209 395.176 629.015 395.751 669.053C396.326 709.091 368.444 719.251 360.37 721.519C352.296 723.787 315.071 718.133 315.071 718.133C315.071 718.133 315.555 731.831 315.071 741.841C314.587 751.85 316.946 765.942 304.608 768.603C304.608 768.603 297.259 772.141 291.665 760.075C291.665 760.075 283.742 760.952 277.543 742.143C271.374 723.334 253.744 655.717 252.837 648.066C251.96 640.416 257.826 627.775 270.769 625.568C283.712 623.36 301.765 620.034 304.215 616.103L307.027 623.209C307.027 623.209 352.175 622.665 378.363 594.209H378.393Z" fill="#D47076"/>
<path d="M319.032 656.594L307.027 623.239" stroke="#443590" stroke-width="0.96" stroke-linecap="round" stroke-linejoin="round"/>
<path d="M293.146 643.651C293.146 643.651 278.752 648.641 282.562 668.055" stroke="#443590" stroke-width="0.96" stroke-linecap="round" stroke-linejoin="round"/>
<path d="M378.394 594.209L381.055 600.318C381.055 600.318 354.988 631.465 313.045 639.902L307.057 623.209C307.057 623.209 319.667 625.084 344.041 615.982C368.414 606.88 378.394 594.209 378.394 594.209Z" fill="#443590"/>
<path d="M304.517 738.424C304.517 738.424 308.116 757.656 291.696 760.076" stroke="#443590" stroke-width="0.96" stroke-linecap="round" stroke-linejoin="round"/>
<path d="M317.127 724.453C317.127 724.453 311.261 726.691 308.569 730.078C308.569 730.078 295.99 706.188 269.076 712.72L270.981 719.615C270.981 719.615 277.725 715.895 290.335 723.304C302.945 730.743 304.82 741.75 304.82 741.75C304.82 741.75 310.958 740.178 315.283 734.765C319.607 729.352 317.127 724.423 317.127 724.423V724.453Z" fill="#443590"/>
<path d="M304.033 749.25C304.033 749.25 299.346 739.331 293.147 739.542C286.948 739.754 290.697 746.8 293.449 749.25C296.171 751.699 300.616 755.691 300.616 755.691C300.616 755.691 303.428 752.243 304.033 749.25Z" fill="#443590"/>
<path d="M314.647 755.661C314.647 755.661 308.751 748.494 307.027 751.881C305.334 755.268 310.837 765.307 310.837 765.307C310.837 765.307 314.315 760.983 314.647 755.661Z" fill="#443590"/>
<path d="M217.487 824.486C217.487 824.486 222.416 820.132 224.321 827.813C226.256 835.494 223.111 841.028 215.188 857.387C207.266 873.747 178.144 914.844 163.478 923.039C148.812 931.203 113.461 930.961 101.909 923.039C90.3578 915.116 91.4161 910.338 94.3796 904.653C97.3432 898.998 131.484 913.634 151.201 905.106C170.917 896.578 209.171 824.033 217.456 824.486H217.487Z" fill="#443590"/>
<path d="M243.251 631.071L216.398 795.879C216.398 795.879 221.902 813.237 216.398 828.024C210.894 842.842 175.785 894.431 166.472 905.439C157.158 916.446 144.911 915.176 144.911 915.176C144.911 915.176 136.02 924.913 123.773 917.716C123.773 917.716 117.846 924.49 108.108 914.753C108.108 914.753 94.9842 911.789 93.7141 902.052C92.4441 892.314 99.2178 889.351 106.415 880.914C113.612 872.447 127.129 814.084 131.363 798.419C135.597 782.755 164.748 620.245 164.748 620.245C164.748 620.245 213.404 618.582 243.251 631.101V631.071Z" fill="#D47076"/>
<path d="M193.113 867.759C193.113 867.759 187.761 860.26 173.336 861.228C158.912 862.195 148.328 875.168 148.328 875.168C148.328 875.168 134.962 857.296 116.153 855.784C116.153 855.784 113.461 855.694 112.01 859.292C110.558 862.891 126.343 863.677 146.393 884.543C146.393 884.543 156.735 869.483 172.611 870.148C188.487 870.814 188.668 874.382 188.668 874.382C188.668 874.382 194.595 875.199 193.083 867.729L193.113 867.759Z" fill="#443590"/>
<path d="M144.911 915.176C144.911 915.176 141.615 911.971 140.435 905.015C139.226 898.03 146.453 884.573 146.453 884.573" stroke="#443590" stroke-width="0.96" stroke-linecap="round" stroke-linejoin="round"/>
<path d="M131.515 884.543C131.515 884.543 115.034 900.812 123.743 917.686" stroke="#443590" stroke-width="0.96" stroke-linecap="round" stroke-linejoin="round"/>
<path d="M116.606 882.638C116.606 882.638 103.664 893.947 108.109 914.753" stroke="#443590" stroke-width="0.96" stroke-linecap="round" stroke-linejoin="round"/>
<path d="M142.068 894.643C142.068 894.643 152.44 891.044 157.006 891.286C161.572 891.528 158.942 898.09 157.006 899.844C155.071 901.628 144.517 902.566 140.404 904.985C140.404 904.985 140.011 899.844 142.068 894.643Z" fill="#443590"/>
<path d="M123.44 896.85C123.44 896.85 132.965 894.25 134.901 896.85C136.836 899.451 134.508 904.743 129.185 904.985C123.863 905.227 121.353 904.985 121.353 904.985C121.353 904.985 122.049 899.874 123.47 896.85H123.44Z" fill="#443590"/>
<path d="M109.137 894.643C109.137 894.643 113.733 894.583 116.606 895.702C119.479 896.82 118.783 902.112 116.606 903.08C114.429 904.048 107.322 903.08 107.322 903.08C107.322 903.08 107.443 898.635 109.137 894.643Z" fill="#443590"/>
<path d="M98.6437 888.988C98.6437 888.988 106.99 890.289 105.055 894.643C103.119 898.967 102.908 898.484 98.6437 896.82L94.3798 895.157C94.3798 895.157 96.8293 890.833 98.6437 888.988Z" fill="#443590"/>
<path d="M179.445 442.283C175.846 444.037 182.741 447.393 190.331 449.42C197.921 451.446 226.679 458.582 263.784 453.351C300.888 448.15 334.939 435.116 327.076 429.491C319.214 423.867 286.797 418.907 252.504 422.869C218.212 426.83 190.482 436.87 179.445 442.283Z" fill="#443590"/>
<path d="M283.379 327.311L299.316 325.647C299.316 325.647 318.851 360.877 328.921 427.496C328.921 427.496 328.921 430.762 324.476 428.978C320.03 427.193 296.655 418.908 256.678 422.476C216.7 426.044 183.255 439.955 179.414 442.313C175.574 444.672 181.078 424.139 184.102 408.505C187.126 392.871 191.268 361.633 185.644 333.298C185.644 333.298 192.297 329.095 212.951 329.307L283.379 327.341V327.311Z" fill="#DFA85B"/>
<path d="M283.38 389.303L224.079 391.662C224.079 391.662 223.807 377.449 233.454 377.147C243.1 376.844 246.064 380.987 246.064 380.987C246.064 380.987 248.15 370.917 255.831 370.04C263.542 369.163 268.562 380.836 268.562 380.836C268.562 380.836 281.384 377.419 283.41 389.273L283.38 389.303Z" fill="white"/>
<path d="M185.644 333.268C185.644 333.268 133.54 333.631 114.307 322.986C95.0748 312.342 95.347 298.28 102.181 260.299C108.985 222.317 114.912 202.207 113.733 182.672C112.554 163.137 104.268 156.636 99.8226 155.426C95.3773 154.247 93.0186 159.871 93.0186 164.014C93.0186 164.014 88.2708 156.031 82.9486 152.765C77.6263 149.499 71.6993 154.852 72.0017 161.656C72.0017 161.656 67.254 157.21 62.5366 160.476C57.7889 163.742 58.8473 166.403 59.8755 173.117C60.6919 178.499 61.3573 179.739 61.3573 179.739C61.3573 179.739 56.6095 169.458 48.6262 173.117C40.6428 176.776 47.1445 184.215 45.3603 199.153C43.5761 214.092 40.0381 220.11 34.988 236.197C29.9682 252.285 20.4728 308.834 32.9014 334.568C45.3301 360.332 69.3104 386.671 108.108 393.475C146.876 400.279 185.976 397.588 185.976 397.588C185.976 397.588 192.478 363.719 185.674 333.298L185.644 333.268Z" fill="#D47076"/>
<path d="M96.4058 188.69C96.4058 188.69 97.1013 175.203 92.9886 164.015" stroke="#443590" stroke-width="0.96" stroke-linecap="round" stroke-linejoin="round"/>
<path d="M71.9715 161.655C71.9715 161.655 77.0519 168.822 78.0195 188.025" stroke="#443590" stroke-width="0.96" stroke-linecap="round" stroke-linejoin="round"/>
<path d="M60.1782 177.743C60.1782 177.743 62.5672 182.249 62.0229 189.9" stroke="#443590" stroke-width="0.96" stroke-linecap="round" stroke-linejoin="round"/>
<path d="M98.6738 203.598C98.6738 203.598 87.9386 194.073 82.5559 197.823C77.1731 201.572 80.8019 210.977 87.6664 219.323C87.6664 219.323 72.2138 217.297 69.1293 227.911" stroke="#443590" stroke-width="0.96" stroke-linecap="round" stroke-linejoin="round"/>
<path d="M181.32 333.237C181.32 333.237 182.983 358.216 178.084 375.664C173.185 393.143 170.524 398.042 170.524 398.042L185.916 397.528C185.916 397.528 192.72 366.32 185.614 333.237H181.289H181.32Z" fill="#443590"/>
<path d="M320.877 427.677L322.358 436.416C322.358 436.416 299.346 450.478 256.344 454.106C213.313 457.735 190.331 449.419 190.331 449.419V437.626C190.331 437.626 214.402 417.909 255.286 416.851C296.171 415.792 320.907 427.707 320.907 427.707L320.877 427.677Z" fill="#D47076"/>
<path d="M322.388 436.416L385.862 584.441C385.862 584.441 374.583 604.671 347.73 614.681C320.907 624.69 307.057 623.208 307.057 623.208L270.436 529.948L265.537 534.605L246.365 634.065C246.365 634.065 179.263 643.227 158.397 614.257L190.361 449.389C190.361 449.389 227.647 460.185 272.16 452.02C316.673 443.855 322.419 436.416 322.419 436.416H322.388Z" fill="white"/>
<path d="M276.998 478.39C276.998 478.39 274.972 458.431 273.43 451.809" stroke="#443590" stroke-width="0.96" stroke-linecap="round" stroke-linejoin="round"/>
<path d="M284.256 505.877C284.256 505.877 276.575 527.166 265.507 534.635" stroke="#443590" stroke-width="0.96" stroke-linecap="round" stroke-linejoin="round"/>
<path d="M212.104 453.501L176.813 628.016L167.832 623.239L203.213 452.201L212.104 453.501Z" fill="#DFA85B"/>
<path d="M261.033 303.118L267.474 323.137C267.474 323.137 269.772 327.522 274.61 327.28C279.449 327.038 283.38 327.28 283.38 327.28C283.38 327.28 281.445 351.956 253.11 355.403C224.775 358.851 212.951 329.246 212.951 329.246C212.951 329.246 218.031 328.429 220.481 327.945C222.93 327.492 224.472 327.25 225.077 321.958C225.682 316.666 226.347 306.808 226.347 306.808C226.347 306.808 244.884 299.187 261.002 303.088L261.033 303.118Z" fill="#D47076"/>
<path d="M188.003 246.66C188.003 246.66 179.717 243.787 175 250.47C170.283 257.153 174.184 271.88 184.465 274.36C194.747 276.839 194.142 249.019 188.003 246.66Z" fill="#D47076"/>
<path d="M173.004 281.376C173.004 285.972 176.723 289.692 181.32 289.692C185.916 289.692 189.636 285.972 189.636 281.376C189.636 276.779 185.916 273.06 181.32 273.06C176.723 273.06 173.004 276.779 173.004 281.376Z" fill="white"/>
<path d="M189.122 230.331C189.122 230.331 189.454 244.241 186.521 252.648C183.618 261.055 180.685 283.372 194.595 295.045C208.506 306.687 228.252 307.352 237.294 307.352C246.336 307.352 280.326 303.784 286.162 278.564C286.162 278.564 309.779 282.132 311.715 263.02C313.65 243.939 295.204 242.306 290.698 246.207C290.698 246.207 273.884 209.979 239.895 207.711C205.935 205.443 195.896 213.215 189.092 230.361L189.122 230.331Z" fill="#D47076"/>
<path d="M290.729 246.176C290.729 246.176 271.647 248.777 246.397 230.965C221.146 213.184 220.814 207.62 220.814 207.62C220.814 207.62 211.953 234.927 188.245 245.088C188.245 245.088 182.318 248.112 182.651 237.769C182.984 227.427 183.619 204.778 218.878 200.242C254.138 195.706 270.014 205.413 280.689 219.021C291.364 232.598 293.48 244.906 293.48 244.906L290.729 246.206V246.176Z" fill="#443590"/>
<path d="M162.269 189.567C152.532 202.177 155.888 221.017 169.708 232.266C183.528 243.515 198.497 229.363 204.333 220.291C210.169 211.219 214.675 196.341 200.765 185.031C186.854 173.721 171.008 178.227 162.269 189.567Z" fill="#443590"/>
<path d="M306.241 183.731C317.279 196.885 328.407 213.971 314.013 229.363C299.619 244.755 278.844 230.21 270.981 222.71C263.119 215.211 252.868 198.609 265.478 182.128C278.088 165.617 299.014 175.143 306.241 183.761V183.731Z" fill="#443590"/>
<path d="M303.974 260.117C303.974 260.117 298.168 253.011 293.48 255.914C288.763 258.817 286.193 268.221 286.193 268.221C286.193 268.221 292.331 261.75 296.535 265.621C300.738 269.491 293.48 273.06 293.48 273.06" stroke="#443590" stroke-width="0.96" stroke-linecap="round" stroke-linejoin="round"/>
<path d="M253.321 255.188C248.634 254.341 244.793 254.099 242.525 254.341C240.227 254.583 235.268 247.93 239.834 243.243C244.4 238.556 254.682 238.979 261.335 243.243C267.987 247.507 266.838 254.674 263.935 256.005C261.032 257.335 255.256 255.521 253.351 255.158L253.321 255.188Z" fill="white" stroke="#443590" stroke-width="0.96" stroke-miterlimit="10" stroke-linecap="round"/>
<path d="M252.111 240.067C252.111 240.067 251.99 248.776 255.831 251.347C259.671 253.948 265.538 254.341 266.233 249.805C266.233 249.805 264.177 240.914 252.111 240.067Z" fill="#443590"/>
<path d="M200.704 242.941C206.994 242.004 213.132 246.661 213.072 252.285C213.011 257.245 204.03 255.763 202.185 256.519C200.311 257.275 195.23 259.24 193.053 257.335C190.876 255.43 191.087 244.423 200.734 242.971L200.704 242.941Z" fill="white" stroke="#443590" stroke-width="0.96" stroke-miterlimit="10" stroke-linecap="round"/>
<path d="M202.458 242.85C202.458 242.85 201.611 248.867 203.063 251.468C204.514 254.069 211.802 255.278 212.921 251.045C212.921 251.045 211.197 243.364 202.428 242.85H202.458Z" fill="#443590"/>
<path d="M239.713 274.421C239.713 274.421 232.667 268.705 227.375 272.243C223.444 274.874 224.774 283.886 230.066 285.73C235.358 287.605 240.741 283.825 240.771 278.775C240.771 275.509 239.713 274.421 239.713 274.421Z" fill="#DFA85B"/>
<path d="M287.342 286.97C287.342 291.567 291.061 295.286 295.658 295.286C300.254 295.286 303.974 291.567 303.974 286.97C303.974 282.374 300.254 278.654 295.658 278.654C291.061 278.654 287.342 282.374 287.342 286.97Z" fill="white"/>
<path d="M224.079 244.573C224.079 244.573 220.843 252.103 220.511 255.188C220.208 257.97 224.079 264.108 224.079 264.108" stroke="#443590" stroke-width="0.96" stroke-linecap="round" stroke-linejoin="round"/>
<path d="M263.18 260.903L264.752 264.532" stroke="#443590" stroke-width="0.96" stroke-linecap="round" stroke-linejoin="round"/>
<path d="M253.11 262.717L254.259 266.315" stroke="#443590" stroke-width="0.96" stroke-linecap="round" stroke-linejoin="round"/>
<path d="M204.938 265.469L204.212 268.704" stroke="#443590" stroke-width="0.96" stroke-linecap="round" stroke-linejoin="round"/>
<path d="M194.564 265.469L193.204 269.219" stroke="#443590" stroke-width="0.96" stroke-linecap="round" stroke-linejoin="round"/>
<path d="M244.612 268.19C244.612 268.19 236.175 283.462 222.295 280.135" stroke="#443590" stroke-width="0.96" stroke-linecap="round" stroke-linejoin="round"/>
<path d="M261.033 303.118C261.033 303.118 244.189 308.954 226.378 306.838L225.894 313.581C225.894 313.581 232.728 314.942 246.971 313.581C261.214 312.22 263.21 309.862 263.21 309.862L261.033 303.118Z" fill="#443590"/>
<path d="M140.616 645.677C146.664 645.677 146.18 656.382 142.763 669.627C139.346 682.872 127.794 729.048 125.224 748.735C122.653 768.391 117.966 788.5 113.249 798.328C108.531 808.156 102.12 813.297 99.1267 812.45C96.1329 811.604 95.2862 808.186 101.274 794.911C107.261 781.666 107.261 764.55 107.261 750.882C107.261 737.213 119.841 716.257 121.02 708.122C122.23 699.988 123.924 679.485 128.641 665.363C133.358 651.241 135.475 645.707 140.616 645.707V645.677Z" fill="#443590"/>
<path d="M93.5621 835.554C99.6706 837.882 102.12 840.695 101.697 846.259C101.273 851.823 94.4391 854.817 89.7217 853.093C85.0042 851.369 84.1575 848.436 84.5808 844.565C85.0042 840.695 89.0564 833.86 93.5621 835.554Z" fill="#443590"/>
<path d="M354.927 741.054C357.286 738.695 369.472 743.624 379.724 750.458C389.975 757.293 392.545 759.016 396.386 762.433C400.226 765.851 405.791 778.672 396.386 779.096C386.981 779.519 383.141 769.268 375.43 762.857C367.718 756.446 364.725 753.876 360.461 750.458C356.197 747.041 351.479 744.471 354.897 741.054H354.927Z" fill="#443590"/>
<path d="M343.375 752.575C345.613 751.456 354.05 765.82 358.767 775.225C363.485 784.63 367.325 796.181 358.767 797.875C350.209 799.599 349.786 788.803 346.369 775.165C342.952 761.526 339.958 754.239 343.375 752.545V752.575Z" fill="#443590"/>
<path d="M815.996 701.59C815.996 701.59 822.861 681.813 821.863 658.74C820.865 635.667 807.045 610.084 807.045 610.084L683.968 615.285L690.47 703.526L815.996 701.59Z" fill="#2C2563"/>
<path d="M940.222 953.731L955.463 976.2C955.463 976.2 946.028 1001.93 922.471 1011.73C898.914 1021.53 872.424 1023.34 872.424 1023.34L855.006 994.344L940.222 953.731Z" fill="#D47076"/>
<path d="M975.028 1012.82C956.249 1021.32 902.15 1044 893.441 1046.17C884.732 1048.35 879.833 1048.2 875.206 1037.77L1028.31 962.772C1028.31 962.772 1034.12 963.861 1034.12 970.393C1034.12 976.925 1007.9 997.942 975.028 1012.82Z" fill="white"/>
<path d="M1028.34 962.773C1028.34 962.773 1025.8 956.967 1004.06 957.33C982.316 957.693 963.597 955.878 955.463 960.051C947.328 964.194 940.947 979.828 940.947 985.271C940.947 985.271 919.205 1003.42 898.521 1010.28C877.867 1017.17 874.389 1016.12 868.523 1016.84C862.626 1017.54 865.347 1022.98 868.523 1028.42C871.698 1033.87 870.972 1042.58 890.93 1036.41C910.858 1030.24 951.471 1016.33 983.767 997.912C1016.03 979.496 1030.19 968.246 1028.37 962.803L1028.34 962.773Z" fill="#443590"/>
<path d="M992.204 957.36C992.204 957.36 982.981 963.59 977.356 978.196" stroke="white" stroke-width="0.93" stroke-miterlimit="10" stroke-linecap="round"/>
<path d="M978.93 957.27C978.93 957.27 965.654 967.672 963.658 980.252" stroke="white" stroke-width="0.93" stroke-miterlimit="10" stroke-linecap="round"/>
<path d="M567 758.895L550.822 744.683C550.822 744.683 534.855 744.652 521.822 758.895C508.758 773.138 501.531 817.38 501.531 817.38L518.949 840.211L567.061 758.865L567 758.895Z" fill="#D47076"/>
<path d="M538.12 724.573C538.12 724.573 540.902 721.609 534.249 717.466C527.597 713.323 517.678 716.589 510.299 724.573C502.951 732.556 484.081 768.814 471.38 798.903C458.68 828.991 455.777 844.595 457.591 848.95C459.405 853.304 466.784 859.352 471.078 861.348C471.078 861.348 472.076 831.894 486.591 797.088C501.106 762.282 538.09 724.573 538.09 724.573H538.12Z" fill="white"/>
<path d="M538.12 724.573C538.12 724.573 555.176 737.758 555.176 740.6C555.176 743.443 554.601 744.32 550.821 744.683C547.041 745.046 532.314 757.565 526.901 766.637C521.488 775.709 509.06 811.755 507.094 824.728L518.918 840.241C518.918 840.241 505.854 859.806 489.192 863.798C482.297 865.461 476.703 864.191 472.53 862.135C466.784 859.322 464.153 852.639 466.149 846.561C471.169 831.502 482.328 798.691 492.095 774.439C505.159 741.961 523.273 719.1 538.151 724.543L538.12 724.573Z" fill="#443590"/>
<path d="M518.888 840.211C518.888 840.211 506.278 836.582 497.901 824.97" stroke="white" stroke-width="0.93" stroke-miterlimit="10" stroke-linecap="round"/>
<path d="M513.264 847.347C513.264 847.347 501.863 846.833 493.517 839.183" stroke="white" stroke-width="0.93" stroke-miterlimit="10" stroke-linecap="round"/>
<path d="M771.029 547.669C771.029 547.669 780.645 545.552 786.3 553.112C791.925 560.672 818.143 629.68 815.875 642.622C813.607 655.565 807.075 662.188 807.075 662.188C807.075 662.188 789.052 655.626 753.157 658.71C717.262 661.825 688.262 669.445 688.262 669.445C688.262 669.445 677.678 637.633 676.801 615.285C675.924 592.938 684.482 540.441 684.482 540.441L690.198 542.226L771.059 547.669H771.029Z" fill="white"/>
<path d="M751.313 590.398C772.663 589.097 782.309 596.567 782.4 601.284C782.491 606.001 769.79 606.364 756.031 607.453C742.241 608.542 725.216 605.276 723.765 601.284C722.313 597.292 733.562 591.486 751.313 590.398Z" fill="#443590"/>
<path d="M776.987 420.389C776.987 420.389 787.813 416.548 797.036 436.809C806.259 457.04 825.885 517.429 825.885 517.429L810.493 520.513L805.866 509.748L805.11 522.812L754.73 530.493C754.73 530.493 738.582 530.493 727.03 528.194C715.479 525.896 720.498 442.041 720.498 442.041C720.498 442.041 748.863 424.925 776.987 420.389Z" fill="#443590"/>
<path d="M760.657 524.263L757.814 534.756C757.814 534.756 757.33 538.385 760.657 540.441C763.983 542.497 774.204 545.34 774.204 545.34C774.204 545.34 770.333 568.05 743.662 570.379C716.99 572.707 690.137 542.225 690.137 542.225C690.137 542.225 698.151 537.84 701.507 535.784C704.864 533.728 710.337 516.249 710.337 516.249C710.337 516.249 721.919 510.171 760.626 524.263H760.657Z" fill="#D47076"/>
<path d="M963.507 664.636C963.507 664.636 972.125 667.267 981.076 664.636C990.058 662.005 1013.25 655.655 1017.73 660.523C1022.2 665.392 1020.36 672.105 1014.73 678.093C1014.73 678.093 1024.08 681.238 1028.19 689.403C1032.3 697.537 1025.2 704.644 1025.2 704.644C1025.2 704.644 1031.94 706.942 1031.18 712.536C1030.43 718.131 1026.71 719.612 1026.71 719.612C1026.71 719.612 1030.46 725.963 1024.47 732.706C1018.48 739.45 1015.13 740.569 1015.13 740.569C1015.13 740.569 1015.13 750.669 1006.15 751.788C997.164 752.907 982.951 749.913 980.713 747.312L978.476 744.681C978.476 744.681 948.266 733.946 941.492 726.779C934.718 719.612 963.507 664.636 963.507 664.636Z" fill="#D47076"/>
<path d="M1013.64 687.83C1013.64 687.83 996.801 693.606 990.813 699.14C984.826 704.674 988.183 711.447 998.676 712.536C1009.14 713.625 1025.23 704.644 1025.23 704.644" stroke="#443590" stroke-width="0.93" stroke-linecap="round" stroke-linejoin="round"/>
<path d="M1026.74 719.612C1026.74 719.612 1016.28 727.928 1009.53 728.261C1002.79 728.593 990.542 725.63 987.881 723.936C985.22 722.243 980.381 711.296 990.27 709.481" stroke="#443590" stroke-width="0.93" stroke-linecap="round" stroke-linejoin="round"/>
<path d="M1015.16 740.568C1015.16 740.568 1000.58 740.931 991.207 738.33C981.863 735.7 981.077 727.595 986.127 721.94" stroke="#443590" stroke-width="0.93" stroke-linecap="round" stroke-linejoin="round"/>
<path d="M978.476 744.681C978.476 744.681 977.418 734.732 984.312 733.704" stroke="#443590" stroke-width="0.93" stroke-linecap="round" stroke-linejoin="round"/>
<path d="M954.556 655.262C954.556 655.262 954.919 630.949 933.599 626.443C912.28 621.968 885.336 614.105 872.636 606.606C859.905 599.137 835.652 570.681 824.04 559.099C812.428 547.517 796.582 539.171 782.43 545.763C782.43 545.763 798.729 585.71 807.075 599.318C815.422 612.956 836.378 651.845 842.728 660.826C849.079 669.807 862.112 679.545 868.523 693.364C874.904 707.214 891.747 722.909 908.591 721.79C925.435 720.671 948.992 694.846 954.616 655.202L954.556 655.262Z" fill="#443590"/>
<path d="M968.769 663.487L954.556 655.262C954.556 655.262 944.456 675.099 935.475 691.187C926.493 707.275 919.508 718.161 919.508 718.161C919.508 718.161 928.005 724.481 935.475 727.868C942.944 731.225 953.044 713.444 960.15 699.14C967.257 684.836 974.726 663.154 968.769 663.517V663.487Z" fill="#DFA85B"/>
<path d="M438.117 617.07C438.117 617.07 437.089 610.356 443.258 607.665C449.396 604.943 454.961 610.266 457.138 615.316C459.315 620.366 458.287 627.865 453.146 629.589C448.005 631.313 444.256 625.839 440.506 623.087C436.756 620.366 428.531 624.115 430.255 631.282C431.978 638.449 441.292 652.39 457.138 652.934C472.984 653.479 480.151 638.449 480.151 638.449L512.084 637.24C512.084 637.24 507.155 609.691 505.431 593.664C503.708 577.606 499.625 568.383 499.625 568.383C499.625 568.383 483.205 565.994 475.01 560.188C466.815 554.382 463.125 545.824 457.108 546.187C451.09 546.52 451.755 553.838 455.535 564.361C455.535 564.361 439.115 561.791 433.672 574.159C433.672 574.159 423.088 575.58 425.477 588.221C425.477 588.221 417.947 592.333 417.947 604.974C417.947 617.614 426.505 622.21 431.615 621.454C436.756 620.698 438.117 617.1 438.117 617.1V617.07Z" fill="#D47076"/>
<path d="M472.621 570.5C472.621 570.5 461.342 566.448 455.536 564.331" stroke="#443590" stroke-width="0.93" stroke-linecap="round" stroke-linejoin="round"/>
<path d="M459.647 576.579C459.647 576.579 446.312 572.375 433.671 574.129" stroke="#443590" stroke-width="0.93" stroke-linecap="round" stroke-linejoin="round"/>
<path d="M449.729 585.469C449.729 585.469 435.728 581.356 425.447 588.191" stroke="#443590" stroke-width="0.93" stroke-linecap="round" stroke-linejoin="round"/>
<path d="M515.048 564.331C515.048 564.331 502.378 566.297 499.626 568.353C496.904 570.409 496.148 591.94 501.47 611.778C506.793 631.615 511.48 640.506 518.889 640.506C526.297 640.506 534.22 639.568 534.22 639.568C534.22 639.568 537.728 635.365 534.22 611.112C530.712 586.83 515.018 564.361 515.018 564.361L515.048 564.331Z" fill="#DFA85B"/>
<path d="M690.138 542.225C690.138 542.225 678.646 536.722 658.96 540.35C639.274 543.979 608.792 554.866 588.501 555.591C568.21 556.317 552.969 549.059 534.099 551.6C515.26 554.14 511.631 570.469 511.268 579.148C510.905 587.857 523.969 640.052 544.26 646.946C564.551 653.841 585.326 629.165 600.688 619.035C616.05 608.874 657.599 598.018 657.599 598.018C657.599 598.018 675.259 590.76 683.182 576.638C691.105 562.486 690.138 542.255 690.138 542.255V542.225Z" fill="#443590"/>
<path d="M807.045 662.188L809.313 678.154C809.313 678.154 796.885 687.226 759.055 689.404C721.224 691.581 686.781 680.694 686.781 680.694L688.232 669.475C688.232 669.475 716.87 656.775 754.579 653.509C792.288 650.243 807.045 662.218 807.045 662.218V662.188Z" fill="#D47076"/>
<path d="M808.799 674.556C808.799 674.556 794.102 681.42 758.207 682.872C722.312 684.323 687.294 676.673 687.294 676.673L683.968 683.053C683.968 683.053 651.248 710.057 637.096 736.185C622.944 762.282 609.184 791.312 609.184 791.312L570.024 757.232C570.024 757.232 549.007 768.118 538.846 783.692C528.686 799.296 518.918 840.271 518.918 840.271C518.918 840.271 547.918 879.795 572.957 899.36C597.965 918.925 630.473 934.529 659.02 921.465C687.536 908.402 717.655 874.321 748.107 808.337L854.34 1003.05C854.34 1003.05 886.606 999.424 905.839 987.086C925.041 974.748 946.451 955.183 946.451 955.183C946.451 955.183 904.024 848.95 878.29 802.531C852.556 756.113 810.855 682.509 810.855 682.509L808.889 674.556H808.799Z" fill="#DFA85B"/>
<path d="M764.739 712.627C764.739 712.627 765.798 704.462 763.288 682.599" stroke="#443590" stroke-width="0.93" stroke-miterlimit="10" stroke-linecap="round"/>
<path d="M782.399 740.569C782.399 740.569 778.136 758.26 758.207 757.171C758.207 757.171 753.127 791.977 748.047 808.307" stroke="#443590" stroke-width="0.93" stroke-miterlimit="10" stroke-linecap="round"/>
<path d="M697.697 678.607C697.697 678.607 685.631 725.298 654.303 780.032C622.974 834.797 610.273 846.742 589.952 835.16C569.661 823.548 540.752 780.94 540.752 780.94" stroke="#443590" stroke-width="0.93" stroke-miterlimit="10" stroke-linecap="round"/>
<path d="M609.185 791.281C609.185 791.281 599.024 813.387 596.121 821.007" stroke="#443590" stroke-width="0.93" stroke-miterlimit="10" stroke-linecap="round"/>
<path d="M809.313 434.904C811.188 438.11 805.503 445.276 797.096 450.024C788.69 454.742 708.886 473.188 687.839 473.793C666.792 474.397 659.867 468.41 658.96 466.172C658.053 463.934 660.563 448.3 700.449 436.779C740.336 425.288 791.865 405.239 809.313 434.904Z" fill="#443590"/>
<path d="M674.746 445.88L658.991 515.493C658.991 515.493 670.905 523.567 692.073 528.194L694.583 440.044L674.776 445.88H674.746Z" fill="#443590"/>
<path d="M770.122 417.032C777.289 419.451 786.663 425.106 790.897 444.339C795.131 463.571 796.28 469.347 798.578 474.337C800.876 479.326 810.886 495.505 792.802 511.653C774.719 527.801 720.135 534.333 694.552 503.186C694.552 503.186 678.586 505.877 674.745 490.878C670.905 475.879 687.446 471.101 687.446 471.101C687.446 471.101 685.904 449.722 688.202 439.349C690.5 428.977 737.039 405.904 770.122 417.032Z" fill="#D47076"/>
<path d="M741.757 462.24C747.533 460.214 757.724 461.666 758.964 470.224C760.204 478.751 749.287 477.179 747.382 477.542C745.477 477.874 739.519 482.924 734.227 480.687C728.935 478.449 726.909 467.411 741.757 462.27V462.24Z" fill="white" stroke="#443590" stroke-width="0.93" stroke-miterlimit="10" stroke-linecap="round"/>
<path d="M738.794 463.479C738.794 463.479 742.997 464.175 743.572 468.681C744.146 473.187 742.574 477.269 737.735 478.569C732.897 479.87 730.508 476.785 730.417 475.334C730.327 473.882 730.206 467.32 738.794 463.51V463.479Z" fill="#443590"/>
<path d="M785.363 455.739C781.553 455.588 777.259 461.122 778.831 467.079C780.404 473.037 787.026 471.797 789.173 470.436C791.32 469.075 793.316 471.01 794.133 469.589C794.949 468.168 793.921 456.042 785.363 455.709V455.739Z" fill="white" stroke="#443590" stroke-width="0.93" stroke-miterlimit="10" stroke-linecap="round"/>
<path d="M781.462 457.463C781.462 457.463 784.788 457.886 785.937 461.938C787.056 465.991 785.544 470.617 781.462 470.768C781.462 470.768 778.498 469.135 778.498 465.083C778.498 461.031 781.462 457.463 781.462 457.463Z" fill="#443590"/>
<path d="M768.519 455.739C768.519 455.739 769.759 461.122 772.118 465.507C774.477 469.892 780.222 474.155 777.41 482.018" stroke="#443590" stroke-width="0.93" stroke-linecap="round" stroke-linejoin="round"/>
<path d="M773.327 495.959C773.327 495.959 760.657 504.396 751.312 493.025" stroke="#443590" stroke-width="0.93" stroke-linecap="round" stroke-linejoin="round"/>
<path d="M744.69 448.905C744.69 448.905 741.576 448.028 738.068 450.024" stroke="#443590" stroke-width="0.93" stroke-linecap="round" stroke-linejoin="round"/>
<path d="M782.399 441.254C782.399 441.254 778.105 439.107 774.204 441.254" stroke="#443590" stroke-width="0.93" stroke-linecap="round" stroke-linejoin="round"/>
<path d="M709.733 436.809L713.967 530.492L692.043 528.194L683.969 445.518C683.969 445.518 696.276 436.96 709.733 436.809Z" fill="#443590"/>
<path d="M809.313 434.904C809.313 434.904 801.512 419.874 778.136 422.263C754.791 424.682 738.764 440.105 716.477 445.911C694.19 451.717 668.153 446.516 658.93 466.172C658.93 466.172 655.936 461.575 658.93 453.35C661.924 445.125 665.341 433.089 665.341 433.089C665.341 433.089 667.337 404.633 667.76 400.4C668.153 396.196 672.568 390.965 680.793 386.58C689.019 382.195 727.091 369.132 754.579 374.968C754.579 374.968 764.014 374.575 770.213 387.396C776.443 400.218 782.4 410.046 782.4 410.046C782.4 410.046 804.505 420.872 809.313 434.904Z" fill="#DFA85B"/>
<path d="M782.399 410.047C782.399 410.047 772.632 404.845 753.399 408.837C734.167 412.859 717.293 424.955 702.082 427.011C686.841 429.068 672.81 429.461 665.401 433.089" stroke="#443590" stroke-width="0.93" stroke-linecap="round" stroke-linejoin="round"/>
<path d="M760.657 524.262C760.657 524.262 740.578 528.133 722.252 523.174C722.252 523.174 736.223 531.399 741.364 532.941C745.326 534.121 757.784 534.726 757.784 534.726L760.627 524.232L760.657 524.262Z" fill="#443590"/>
<path d="M703.806 699.141C703.806 699.141 707.798 685.049 707.072 665.091C706.346 645.163 696.548 615.044 696.548 615.044C696.548 615.044 687.839 565.359 688.202 554.14C688.565 542.891 690.138 542.226 690.138 542.226C690.138 542.226 657.841 580.6 657.63 598.018C657.388 615.437 660.986 633.188 658.839 636.091C656.692 638.994 646.531 646.221 646.169 658.74C645.806 671.26 650.523 680.604 655.241 685.745C659.958 690.855 679.523 705.28 703.836 699.141H703.806Z" fill="#443590"/>
<path d="M674.171 712.537C663.012 709.18 655.241 704.584 654.515 700.622C653.789 696.661 655.241 685.714 655.241 685.714L703.836 699.11C703.836 699.11 703.473 702.709 703.836 709.452C704.199 716.196 700.903 718.01 694.583 717.284C688.263 716.559 679.614 714.139 674.201 712.506L674.171 712.537Z" fill="#443590"/>
<path d="M686.781 646.977C686.781 646.977 688.111 677.791 658.99 667.268" stroke="white" stroke-width="0.93" stroke-miterlimit="10" stroke-linecap="round"/>
<path d="M694.553 539.806C694.553 539.806 693.978 566.478 694.553 585.347C695.127 604.217 699.814 617.251 696.579 615.073C693.313 612.896 685.904 585.71 683.999 568.292C682.094 550.874 683.908 535.21 687.9 533.607C691.891 532.034 696.216 533.062 694.583 539.776L694.553 539.806Z" fill="#DFA85B"/>
<path d="M813.88 688.95C813.88 688.95 817.841 660.524 809.313 638.812C800.786 617.13 792.258 593.966 792.258 593.966C792.258 593.966 774.175 553.898 774.205 548.304C774.205 542.679 784.547 542.316 794.345 557.648C804.142 572.979 808.618 592.424 814.787 600.286C820.986 608.149 837.799 620.486 839.674 644.437C841.549 668.387 828.092 686.319 828.092 686.319C828.092 686.319 824.736 690.794 813.88 688.95Z" fill="#443590"/>
<path d="M765.949 542.709C765.949 542.709 766.07 532.548 773.328 533.667C780.586 534.786 786.21 552.386 789.567 562.849C792.923 573.312 796.492 587.162 794.345 594.268C792.198 601.375 776.322 556.801 772.663 550.269C769.004 543.737 765.949 542.709 765.949 542.709Z" fill="#DFA85B"/>
<path d="M827.729 710.269C823.556 710.027 816.51 715.5 814.635 710.269C812.76 705.037 813.879 688.949 813.879 688.949C813.879 688.949 825.975 689.615 828.092 686.319C830.239 683.053 832.96 693.969 834.079 699.685C835.198 705.4 834.079 710.631 827.729 710.269Z" fill="#443590"/>
<path d="M700.571 913.27C705.742 916.355 703.746 928.602 691.075 942.331C678.405 956.06 654.636 968.216 622.944 958.177C591.253 948.137 585.447 936.525 587.019 931.233C588.592 925.941 602.351 936.525 616.594 941.272C630.867 946.02 653.033 949.195 670.996 937.583C688.958 925.971 692.648 908.523 700.571 913.3V913.27Z" fill="#443590"/>
<path d="M560.045 901.114C565.73 901.538 574.832 904.259 573.774 912.454C572.715 920.649 563.22 918.018 560.045 915.902C556.87 913.785 553.059 900.6 560.045 901.114Z" fill="#443590"/>
<path d="M1018.03 927.544C1015.4 924.913 1026.47 916.446 1033.88 904.289C1041.28 892.133 1049.21 878.948 1055.53 881.579C1061.85 884.21 1051.29 902.717 1044.97 909.581C1038.65 916.446 1031.76 920.135 1028.07 922.766C1024.38 925.397 1021.2 930.689 1018.03 927.513V927.544Z" fill="#443590"/>
<path d="M1037.56 934.922C1038.29 939.216 1069.29 932.14 1083.02 928.511C1096.74 924.882 1104.67 922.765 1100.98 912.454C1097.29 902.172 1086.7 909.55 1072.46 915.901C1058.19 922.251 1036.51 928.571 1037.59 934.922H1037.56Z" fill="#443590"/>
<path d="M1039.68 668.628C1040.83 673.86 1046.27 675.221 1062.36 665.695C1078.45 656.17 1083.83 651.543 1088.7 648.882C1093.57 646.19 1093.09 638.872 1083.83 639.87C1074.58 640.838 1070.16 644.739 1060.43 651.089C1050.69 657.44 1037.99 660.857 1039.68 668.659V668.628Z" fill="#443590"/>
<path d="M1047 691.55C1046.09 695.391 1055.04 698.142 1068.95 702.285C1082.86 706.428 1091.39 705.702 1094.81 696.933C1098.23 688.163 1076 686.681 1065.66 687.407C1055.32 688.133 1048.24 686.439 1047 691.55Z" fill="#443590"/>
</g>
<defs>
<clipPath id="clip0_396_849">
<rect width="1512" height="1512" fill="white" transform="matrix(-1 0 0 1 1512 -309)"/>
</clipPath>
</defs>
</svg>
