<svg width="30" height="30" viewBox="0 0 30 30" fill="none" xmlns="http://www.w3.org/2000/svg">
<g clip-path="url(#clip0_224_483)">
<path d="M13.89 19.4996C13.6262 19.0405 13.4886 18.5196 13.4912 17.9901C13.4939 17.4605 13.6366 16.9411 13.905 16.4846C15.0665 16.3901 16.146 15.8487 16.9164 14.9744C17.6868 14.1 18.088 12.9609 18.0355 11.7968C17.983 10.6327 17.481 9.53427 16.6351 8.73279C15.7891 7.9313 14.6653 7.48923 13.5 7.49961H7.5C6.30653 7.49961 5.16193 7.97371 4.31802 8.81763C3.47411 9.66154 3 10.8061 3 11.9996C3 13.1931 3.47411 14.3377 4.31802 15.1816C5.16193 16.0255 6.30653 16.4996 7.5 16.4996H7.62C7.45384 17.4927 7.45384 18.5065 7.62 19.4996H7.5C5.51088 19.4996 3.60322 18.7094 2.1967 17.3029C0.790176 15.8964 0 13.9887 0 11.9996C0 10.0105 0.790176 8.10283 2.1967 6.69631C3.60322 5.28978 5.51088 4.49961 7.5 4.49961H13.5C15.4891 4.44789 17.4173 5.18847 18.8604 6.55842C20.3035 7.92838 21.1433 9.81548 21.195 11.8046C21.2467 13.7937 20.5061 15.7219 19.1362 17.165C17.7662 18.6081 15.8791 19.4479 13.89 19.4996ZM16.11 10.4996C16.3738 10.9588 16.5114 11.4796 16.5088 12.0091C16.5061 12.5387 16.3634 13.0581 16.095 13.5146C14.9335 13.6091 13.854 14.1505 13.0836 15.0248C12.3132 15.8992 11.912 17.0383 11.9645 18.2024C12.017 19.3666 12.519 20.4649 13.3649 21.2664C14.2109 22.0679 15.3347 22.51 16.5 22.4996H22.5C23.6935 22.4996 24.8381 22.0255 25.682 21.1816C26.5259 20.3377 27 19.1931 27 17.9996C27 16.8061 26.5259 15.6615 25.682 14.8176C24.8381 13.9737 23.6935 13.4996 22.5 13.4996H22.38C22.5462 12.5065 22.5462 11.4927 22.38 10.4996H22.5C24.4891 10.4996 26.3968 11.2898 27.8033 12.6963C29.2098 14.1028 30 16.0105 30 17.9996C30 19.9887 29.2098 21.8964 27.8033 23.3029C26.3968 24.7094 24.4891 25.4996 22.5 25.4996H16.5C15.5151 25.5252 14.5348 25.3566 13.615 25.0033C12.6953 24.6501 11.8541 24.1191 11.1396 23.4408C9.69649 22.0708 8.85672 20.1837 8.805 18.1946C8.75328 16.2055 9.49386 14.2773 10.8638 12.8342C12.2338 11.3911 14.1209 10.5513 16.11 10.4996Z" fill="white"/>
</g>
<defs>
<clipPath id="clip0_224_483">
<rect width="30" height="30" fill="white"/>
</clipPath>
</defs>
</svg>
