<svg width="100" height="100" viewBox="0 0 100 100" fill="none" xmlns="http://www.w3.org/2000/svg">
<path d="M16.6 12.5998C15.6 12.5998 14.7 11.7998 14.7 10.6998C14.7 9.6998 15.5 8.7998 16.6 8.7998H44.2C45.2 8.7998 46.1 9.5998 46.1 10.6998C46.1 11.6998 45.3 12.5998 44.2 12.5998H16.6ZM55.8 12.5998C54.8 12.5998 53.9 11.7998 53.9 10.6998C53.9 9.6998 54.7 8.7998 55.8 8.7998H83.4C84.4 8.7998 85.3 9.5998 85.3 10.6998C85.3 11.6998 84.5 12.5998 83.4 12.5998H55.8Z" fill="#8C8DEC"/>
<path d="M84.5 37.8004C84.7 38.8004 84 39.8004 83 40.0004C82 40.2004 81 39.5004 80.8 38.5004C79.7 32.0004 76.6 26.3004 72.1 21.8004C67.6 17.4004 61.9 14.2004 55.4 13.1004C54.4 12.9004 53.7 12.0004 53.9 10.9004C54.1 9.90042 55 9.20042 56.1 9.40042C63.3 10.7004 69.8 14.1004 74.8 19.1004C79.7 24.1004 83.2 30.6004 84.5 37.8004ZM43.9 9.40042C44.9 9.20042 45.9 9.90042 46.1 10.9004C46.3 11.9004 45.6 12.9004 44.6 13.1004C38.1 14.2004 32.4 17.3004 27.9 21.8004C23.5 26.2004 20.3 32.0004 19.2 38.5004C19 39.5004 18 40.2004 17 40.0004C16 39.8004 15.3 38.9004 15.5 37.8004C16.8 30.6004 20.2 24.1004 25.2 19.1004C30.2 14.2004 36.7 10.7004 43.9 9.40042Z" fill="#8C8DEC"/>
<path fill-rule="evenodd" clip-rule="evenodd" d="M17.4 38.1996C20.3 38.4996 22.7 40.8996 22.7 43.8996C22.7 47.0996 20.1 49.6996 16.9 49.6996C13.7 49.6996 11.1 47.0996 11.1 43.8996C11.1 40.6996 13.7 38.0996 16.9 38.0996C17 38.0996 17.2 38.0996 17.4 38.1996Z" fill="#EFBA70"/>
<path fill-rule="evenodd" clip-rule="evenodd" d="M88.9 43.9001C88.9 47.1001 86.3 49.7001 83.1 49.7001C79.9 49.7001 77.3 47.1001 77.3 43.9001C77.3 40.9001 79.6 38.4001 82.6 38.2001H83.1C86.3 38.1001 88.9 40.7001 88.9 43.9001Z" fill="#EFBA70"/>
<path fill-rule="evenodd" clip-rule="evenodd" d="M77.2 57.3996L60.9 80.0996L49 83.7996L39.1 80.0996L22.8 57.3996C36.4 45.7996 42.2 38.2996 50 25.0996C57.8 38.2996 63.6 45.7996 77.2 57.3996Z" fill="#8EC1F8"/>
<path fill-rule="evenodd" clip-rule="evenodd" d="M94.9 5V16.5H83.4V10.8V5H94.9Z" fill="#8C8DEC"/>
<path fill-rule="evenodd" clip-rule="evenodd" d="M16.6 10.8V16.5H5.10001V5H16.6V10.8Z" fill="#8C8DEC"/>
<path fill-rule="evenodd" clip-rule="evenodd" d="M55.7 11.3C55.5 14.2 53 16.6 50 16.6C47 16.6 44.5 14.3 44.3 11.3C44.3 11.1 44.3 11 44.3 10.8C44.2 7.6 46.8 5 50 5C53.2 5 55.8 7.6 55.8 10.8C55.8 10.9 55.8 11.1 55.7 11.3Z" fill="#EFBA70"/>
<path fill-rule="evenodd" clip-rule="evenodd" d="M50 39.2996C54.6 45.1996 59.9 50.5996 67.8 57.3996L51.5 80.0996L56.5 81.9996L60.8 80.0996L77.1 57.3996C63.6 45.7996 57.8 38.2996 50 25.0996V39.2996Z" fill="#7CB7F6"/>
<path fill-rule="evenodd" clip-rule="evenodd" d="M17 43.8996C17 46.0996 15.8 47.8996 14.1 48.8996C14.9 49.3996 15.9 49.5996 16.9 49.5996C20.1 49.5996 22.7 46.9996 22.7 43.7996C22.7 40.7996 20.4 38.2996 17.4 38.0996C17.2 38.0996 17.1 38.0996 16.9 38.0996C15.9 38.0996 14.9 38.3996 14.1 38.7996C15.8 39.8996 17 41.6996 17 43.8996Z" fill="#DFA85B"/>
<path fill-rule="evenodd" clip-rule="evenodd" d="M83.3 43.9C83.3 46.1 82.1 47.9 80.4 48.9C81.2 49.4 82.2 49.6 83.2 49.6C86.4 49.6 89 47 89 43.8C89 40.6 86.4 38 83.2 38C83 38 82.9 38 82.7 38C81.9 38.1 81.1 38.3 80.4 38.7C82.1 39.9 83.3 41.7 83.3 43.9Z" fill="#DFA85B"/>
<path fill-rule="evenodd" clip-rule="evenodd" d="M89.3 5H94.9V16.5H89.3V5Z" fill="#7B7CF1"/>
<path fill-rule="evenodd" clip-rule="evenodd" d="M50.1 10.8C50.1 13 48.9 14.8 47.2 15.8C48 16.3 49 16.5 50 16.5C53 16.5 55.5 14.2 55.7 11.2C55.7 11 55.7 10.9 55.7 10.7C55.8 7.6 53.2 5 50 5C49 5 48 5.3 47.2 5.7C48.9 6.7 50.1 8.6 50.1 10.8Z" fill="#DFA85B"/>
<path fill-rule="evenodd" clip-rule="evenodd" d="M11 5V16.5H16.6V10.8V5H11Z" fill="#7B7CF1"/>
<path fill-rule="evenodd" clip-rule="evenodd" d="M51.6 53.2002C51.1 53.0002 50.6 53.0002 50 53.0002C49.4 53.0002 48.9 53.1002 48.4 53.2002C48.2 52.9002 48.1 52.6002 48.1 52.3002V28.3002C48.7 27.3002 49.3 26.3002 50 25.2002C50.6 26.3002 51.3 27.3002 51.9 28.3002V52.3002C51.9 52.6002 51.8 52.9002 51.6 53.2002Z" fill="#3069A6"/>
<path fill-rule="evenodd" clip-rule="evenodd" d="M56.2 59.1C56.2 62.5 53.4 65.3 50 65.3C46.6 65.3 43.8 62.5 43.8 59.1C43.8 55.7 46.6 53 50 53C53.4 53 56.2 55.7 56.2 59.1Z" fill="#4580BF"/>
<path fill-rule="evenodd" clip-rule="evenodd" d="M50.5 59.1C50.5 61.5 49.1 63.6 47.1 64.6C48 65 49 65.3 50 65.3C53.4 65.3 56.2 62.5 56.2 59.1C56.2 55.7 53.4 53 50 53C49 53 48 53.2 47.2 53.7C49.2 54.7 50.5 56.7 50.5 59.1Z" fill="#3069A6"/>
<path fill-rule="evenodd" clip-rule="evenodd" d="M72.7 87.5V95H27.3V87.5C27.3 83.4 30.7 80 34.8 80H39.1H60.8H65.1C69.3 80.1 72.7 83.4 72.7 87.5Z" fill="#AF4889"/>
<path fill-rule="evenodd" clip-rule="evenodd" d="M63.3 87.5V95H72.7V87.5C72.7 83.4 69.3 80 65.2 80H60.9H55.9C59.9 80.1 63.3 83.4 63.3 87.5Z" fill="#A5307A"/>
</svg>
