<svg width="390" height="235" viewBox="0 0 390 235" fill="none" xmlns="http://www.w3.org/2000/svg">
<path d="M274.147 166.03C276.11 165.318 268.154 162.23 258.142 158.251C248.144 154.272 225.814 132.568 194.48 121.889C163.145 111.218 155.812 119.536 151.808 120.803C147.803 122.069 141.81 118.45 138.136 114.83C134.477 111.21 106.471 84.9807 80.1359 77.2089C53.8009 69.43 41.4689 74.496 38.8035 75.9424C36.1382 77.3888 27.1345 66.7171 11.8056 64.0041C-3.52335 61.2912 0.467939 77.2089 0.467939 80.1017C0.467939 82.9946 3.79632 85.3477 8.46394 87.1539C13.1316 88.9601 28.4605 94.206 35.4619 96.1993C42.4634 98.1927 60.7891 104.338 64.7937 105.605C68.7984 106.871 80.7989 110.491 86.4611 113.384C92.1232 116.276 104.124 118.27 108.791 118.989C113.459 119.716 121.124 120.076 131.122 123.508C141.12 126.948 159.114 132.554 168.45 135.627C177.785 138.699 206.454 147.205 208.111 147.565C209.782 147.925 212.779 146.838 212.779 146.838C212.779 146.838 218.441 148.831 220.443 149.731C222.446 150.638 227.445 151.357 229.447 150.091C231.449 148.824 243.118 154.977 249.112 157.51C255.106 160.043 267.106 164.022 269.44 164.929C271.774 165.836 272.105 166.735 274.108 166.016L274.147 166.03Z" fill="#7B7CF1" fill-opacity="0.5"/>
<path d="M12.8266 73.2372C12.8266 73.2372 51.4937 86.6147 56.8244 89.2412C62.155 91.8678 73.4926 93.4941 72.8296 95.3003C72.1665 97.1065 64.5021 95.4802 58.1637 93.4941C51.8252 91.5008 19.8281 80.4692 12.8266 78.3032C5.82518 76.13 5.1622 74.8635 5.1622 73.2372C5.1622 71.6109 9.69719 72.1506 12.8266 73.2372Z" fill="black"/>
<path d="M83.5703 97.5234C85.2146 97.8544 86.66 99.2 85.7185 100.078C84.777 100.956 82.894 100.956 81.2763 100.445C79.6585 99.934 78.7171 99.1353 79.2607 98.2574C79.8044 97.3794 81.0111 97.0196 83.5571 97.5306L83.5703 97.5234Z" fill="black"/>
<path d="M20.9287 96.5738C19.8546 97.4085 22.8116 98.6894 27.2405 100.15C31.6695 101.611 77.5237 117.219 84.5119 119.486C91.5 121.746 98.6341 124.228 100.239 122.767C101.843 121.307 97.2815 120.285 92.5741 119.414C87.8667 118.543 70.3896 111.167 63.534 109.131C56.6785 107.087 45.9243 103.511 38.2599 101.107C30.5954 98.6966 27.9036 98.085 25.6228 97.3006C23.342 96.5162 21.8569 95.8542 20.9154 96.5882L20.9287 96.5738Z" fill="#AF4889" fill-opacity="0.66"/>
<path d="M34.2418 116.42C33.3799 117.219 35.727 119.119 40.2885 120.508C44.8633 121.896 69.5938 128.603 80.4805 131.381C91.3672 134.151 99.8405 135.979 102.532 136.778C105.224 137.584 106.564 136.051 104.15 135.173C101.737 134.295 100.517 133.935 96.0879 131.82C91.6457 129.704 86.1029 125.178 79.128 123.868C72.153 122.559 72.0204 126.711 68.6656 126.423C65.3107 126.128 62.7515 124.89 58.4551 122.263C54.1588 119.637 48.3773 118.032 43.4046 117.082C38.432 116.132 35.6076 115.183 34.2684 116.427L34.2418 116.42Z" fill="#926650"/>
<path d="M142.194 159.532C142.194 159.532 47.8204 135.166 43.5241 133.921C39.2278 132.676 37.4774 132.971 36.8011 133.626C36.1248 134.281 37.1989 135.015 43.113 136.691C49.0271 138.368 134.795 160.841 138.693 161.712C142.592 162.583 144.21 162.806 144.873 161.712C145.549 160.618 143.547 159.877 142.181 159.525L142.194 159.532Z" fill="#7B7CF1" fill-opacity="0.5"/>
<path d="M318.171 199.563C320.651 198.405 311.793 196.203 309.353 195.188C306.913 194.174 302.789 190.511 298.665 192.439C298.665 192.439 295.098 186.841 288.535 184.401C281.971 181.962 278.218 186.74 276.163 186.236C274.094 185.725 257.413 176.773 247.282 172.096C237.151 167.419 229.473 164.468 224.593 166.296C219.714 168.124 219.157 169.045 219.157 169.045C219.157 169.045 214.277 168.03 213.72 169.657C213.163 171.283 215.033 171.693 229.473 175.867C243.914 180.04 302.975 196.829 309.168 198.354C315.36 199.88 316.859 200.189 318.171 199.578V199.563Z" fill="#926650"/>
<path d="M339.547 170.262C338.115 171.737 333.553 170.161 327.918 168.326C322.295 166.491 259.667 148.386 252.917 146.349C246.168 144.313 243.728 143.298 245.041 142.075C246.354 140.851 250.663 141.664 256.286 143.399C261.908 145.126 317.972 161.921 323.979 163.951C329.973 165.987 341.417 168.326 339.547 170.262Z" fill="#7CB7F6"/>
<path d="M202.489 111.75C201.163 112.391 199.863 113.074 191.615 110.225C183.367 107.375 173.236 103.712 169.112 101.985C164.988 100.258 149.606 93.6448 138.547 92.4215C127.488 91.1981 126.361 90.1835 118.856 87.1323C111.35 84.0812 100.291 76.144 74.036 66.2709C47.7806 56.3979 46.4678 56.9089 43.0997 55.7935C39.7183 54.6709 38.2199 53.1453 35.5944 53.4547C32.9688 53.757 30.3432 54.0664 19.2841 50.2021C8.22501 46.3378 5.83819 39.8254 5.14865 35.8532C4.45911 31.8809 3.58393 9.8034 5.14865 5.32745C6.71337 0.851497 28.8448 -5.04928 48.3375 7.76692C67.8434 20.5903 80.7722 44.7043 83.3978 47.3525C86.0233 50.0006 89.2057 49.0795 94.6425 48.5758C100.079 48.0649 114.705 49.1875 126.892 66.8898C139.078 84.5921 139.449 86.017 146.199 85.9162C152.948 85.8155 159.141 84.1892 169.073 90.0899C179.005 95.9907 181.073 101.992 185.197 104.029C189.321 106.065 197.755 108.735 200.195 109.742C202.634 110.75 203.576 111.218 202.449 111.764L202.489 111.75Z" fill="#926650"/>
<path d="M15.9558 24.1382C15.9558 24.1382 53.4161 41.1281 65.2178 46.6259C77.0327 52.1237 88.4631 57.7151 90.7174 58.7369C92.9716 59.7516 94.8413 60.9749 93.3429 62.0975C91.8445 63.2201 89.219 61.7952 86.0365 60.4712C82.854 59.1471 16.1017 30.0462 14.2187 29.233C12.349 28.4199 10.466 26.9951 10.0947 24.6563C9.72339 22.3176 13.7546 23.1452 15.9558 24.1454V24.1382Z" fill="#AF4889" fill-opacity="0.66"/>
<path d="M55.4848 3.28396C57.0362 2.44202 59.4231 3.5862 65.4168 7.45768C71.4104 11.322 80.2285 21.7059 83.7955 30.5571C87.3625 39.4082 80.0429 34.8315 78.5445 31.7804C77.046 28.7293 74.0492 22.7277 67.4854 15.6036C60.9215 8.47952 59.7944 8.07654 58.1103 6.85321C56.4262 5.62988 53.9863 4.10431 55.4848 3.29116V3.28396Z" fill="#7B7CF1" fill-opacity="0.5"/>
<path d="M86.0365 39.2995C87.3891 39.4002 89.219 40.3141 89.6036 41.739C89.9881 43.1638 89.6036 44.2864 87.8267 44.2864C86.0498 44.2864 85.7316 43.1422 84.7635 41.7821C83.7955 40.4221 85.0685 39.2275 86.0498 39.2995H86.0365Z" fill="#7B7CF1" fill-opacity="0.5"/>
<path d="M232.669 123.199C231.635 124.099 227.975 122.94 223.851 120.904C219.727 118.867 210.723 116.809 210.723 114.989C210.723 113.168 218.414 115.917 221.689 117.241C224.965 118.565 234.34 121.724 232.656 123.199H232.669Z" fill="#926650"/>
<path d="M379.859 230.903C375.191 230.651 369.357 230.6 366.545 229.276C363.734 227.952 357.727 223.987 342.173 217.676C326.605 211.365 315.546 208.516 311.237 210.451C306.927 212.387 308.24 216.762 300.363 215.74C292.487 214.726 273.922 203.629 243.171 195.692C212.421 187.755 180.172 190.18 180.357 199.852C180.543 209.53 179.23 211.667 170.797 209.631C162.363 207.594 122.98 196.808 85.4798 188.568C47.9797 180.329 20.5972 175.644 13.2908 185.107C5.98434 194.57 9.72372 205.659 11.6067 206.731C13.4897 207.803 54.5436 211.257 68.2282 213.092C81.9128 214.927 200.977 225.815 233.226 227.844C265.475 229.881 374.608 234.659 381.171 234.868C387.735 235.069 389.791 234.666 389.99 233.241C390.175 231.816 387.921 231.327 379.859 230.903Z" fill="#926650"/>
<path d="M353.046 217.777C351.561 217.942 350.235 218.389 346.296 215.942C342.358 213.502 336.55 210.754 331.856 209.631C327.162 208.508 325.106 207.904 325.292 206.731C325.478 205.558 329.787 205.961 335.038 207.386C340.29 208.811 348.166 212.481 350.407 213.697C352.661 214.92 355.008 217.547 353.033 217.77L353.046 217.777Z" fill="#AF4889" fill-opacity="0.66"/>
<path d="M103.288 187.863C102.201 188.892 96.7245 187.453 89.2192 185.424C81.7139 183.387 62.2212 178.199 48.5365 176.875C34.8519 175.551 35.7006 175.551 34.0563 174.126C32.412 172.701 39.7317 173.313 51.7323 174.536C63.7329 175.759 87.3362 181.811 90.8104 182.804C94.2846 183.798 105.543 185.733 103.288 187.863Z" fill="#AF4889" fill-opacity="0.66"/>
<path d="M116.045 190.303C115.156 191.03 117.358 192.239 119.426 192.851C121.495 193.462 122.993 193.865 123.55 192.851C124.107 191.836 122.237 190.915 120.553 190.303C118.869 189.692 117.172 189.389 116.058 190.303H116.045Z" fill="#AF4889" fill-opacity="0.66"/>
<path d="M148.479 225.715C148.479 226.78 145.668 227.852 131.984 226.837C118.299 225.823 48.7354 220.836 35.979 219.814C23.2225 218.799 17.7461 218.389 16.8576 216.453C15.9692 214.518 19.1119 214.316 28.3013 215.129C37.4907 215.943 104.018 220.929 115.846 221.843C127.674 222.757 132.567 222.858 137.248 223.369C141.929 223.88 148.493 223.88 148.493 225.708L148.479 225.715Z" fill="#7CB7F6"/>
<path d="M184.64 84.5487C187.544 86.1246 189.546 86.9162 192.994 88.0963C196.442 89.2765 201.348 92.5291 198.988 93.9107C196.627 95.2924 191.535 93.0256 188.088 91.3489C184.64 89.6723 179.734 86.0238 175.371 84.5487C171.008 83.0663 166.831 80.0151 161.023 77.8419C155.215 75.6687 150.309 73.8985 149.938 72.4233C149.58 70.9409 150.123 69.9119 155.03 71.2143C159.936 72.5168 161.753 74.0928 166.115 75.7695C170.478 77.4461 176.657 80.1087 180.463 81.9797C184.282 83.8506 184.64 84.5415 184.64 84.5415V84.5487Z" fill="#7CB7F6"/>
</svg>
