<svg width="100" height="100" viewBox="0 0 100 100" fill="none" xmlns="http://www.w3.org/2000/svg">
<path fill-rule="evenodd" clip-rule="evenodd" d="M14.5 21L6.39999 36.1L15.8 41.2C15 44 14.6 46.9 14.6 50C14.6 53.1 15 56 15.7 58.9L6.29999 64L14.5 79L23.9 73.9C28.5 78.9 34.6 82.6 41.4 84.3V95H58.5V84.3C65.3 82.6 71.4 78.9 76 73.9L85.4 79L93.6 63.9L84.2 58.8C84.9 56 85.3 53 85.3 49.9C85.3 46.8 84.9 43.9 84.2 41L93.6 35.9L85.5 21L76.1 26.1C71.5 21.1 65.4 17.4 58.6 15.7V5H41.4V15.7C34.6 17.4 28.5 21.1 23.9 26.1L14.5 21ZM23.9 50C23.9 35.6 35.6 23.9 50 23.9C64.4 23.9 76.1 35.6 76.1 50C76.1 59.6 71 67.9 63.3 72.5C59.4 74.8 54.9 76.1 50 76.1C45.1 76.1 40.6 74.8 36.7 72.5C29.1 67.9 23.9 59.6 23.9 50Z" fill="#8D8DEC"/>
<path fill-rule="evenodd" clip-rule="evenodd" d="M34.1 50.6002L43.7 63.9002H56.4L66 50.6002C58 43.8002 54.6 39.4002 50 31.7002C45.4 39.4002 42 43.8002 34.1 50.6002Z" fill="#8EC1F8"/>
<path fill-rule="evenodd" clip-rule="evenodd" d="M36.7 68.1998V72.3998C40.6 74.6998 45.1 75.9998 50 75.9998C54.9 75.9998 59.4 74.6998 63.3 72.3998V68.1998C63.3 65.7998 61.3 63.7998 58.9 63.7998H56.4H43.6H41.1C38.7 63.8998 36.7 65.7998 36.7 68.1998Z" fill="#AF4889"/>
<path fill-rule="evenodd" clip-rule="evenodd" d="M84.3 41.1L93.7 36L85.5 21L76.1 26.1C71.5 21.1 65.4 17.4 58.6 15.7V5H41.4V9.2C47.6 13.2 52.8 18.5 56.6 24.8C67.8 27.8 76 37.9 76 50C76 62.1 67.8 72.3 56.6 75.2C52.8 81.5 47.5 86.8 41.4 90.8V95H58.5V84.3C65.3 82.6 71.4 78.9 76 73.9L85.4 79L93.6 63.9L84.2 58.8C84.9 56 85.3 53 85.3 49.9C85.4 46.9 85 44 84.3 41.1Z" fill="#7B7CF1"/>
<path fill-rule="evenodd" clip-rule="evenodd" d="M63.3 72.5004V68.3004C63.3 65.9004 61.3 63.9004 58.9 63.9004H56.4H49.8C52.2 63.9004 54.2 65.9004 54.2 68.3004V75.8004C55.1 75.7004 55.9 75.5004 56.7 75.3004C59 74.6004 61.2 73.7004 63.3 72.5004Z" fill="#A5307A"/>
<path fill-rule="evenodd" clip-rule="evenodd" d="M56.4 63.9002L66 50.6002C58 43.8002 54.6 39.4002 50 31.8002V31.7002V42.2002C52.3 44.8002 55 47.4002 58.6 50.6002L49 63.9002H56.4Z" fill="#7CB7F6"/>
<path fill-rule="evenodd" clip-rule="evenodd" d="M51.8 34.7002C51.2 33.8002 50.6 32.8002 50 31.7002C49.4 32.8002 48.8 33.7002 48.2 34.7002V48.8002H47.5C46.5 48.8002 45.7 49.6002 45.7 50.6002C45.7 51.6002 46.5 52.4002 47.5 52.4002H52.5C53.5 52.4002 54.3 51.6002 54.3 50.6002C54.3 49.6002 53.5 48.8002 52.5 48.8002H51.8V34.7002Z" fill="#3069A6"/>
</svg>
